<svg width="150" height="150" viewBox="0 0 150 150" fill="none" xmlns="http://www.w3.org/2000/svg">
<circle cx="75" cy="75" r="75" fill="#FEDFB2"/>
<path d="M139.999 74.5979C139.846 62.1347 136.128 49.9747 129.285 39.5501C122.442 29.1255 112.758 20.8703 101.374 15.757C89.9889 10.6436 77.3782 8.88491 65.0262 10.688C52.6744 12.4911 41.0956 17.7808 31.6538 25.9344C22.2118 34.0879 15.3 44.7657 11.7322 56.71C8.16446 68.6544 8.08929 81.3678 11.5157 93.3536C14.9421 105.339 21.7273 116.097 31.0722 124.362C40.417 132.626 51.9325 138.052 64.2622 140V93.6462H47.8868V74.5979H64.2622V60.1276C63.8832 56.7632 64.2483 53.3565 65.3324 50.1482C66.4164 46.9399 68.1924 44.0082 70.5349 41.5601C72.8774 39.112 75.7292 37.2071 78.8896 35.9799C82.0501 34.7526 85.4423 34.2329 88.8255 34.4576C93.7365 34.5247 98.636 34.962 103.482 35.7656V52.1161H95.2938C93.8822 51.9383 92.4477 52.0796 91.0984 52.5295C89.7482 52.9794 88.5168 53.7263 87.4949 54.7152C86.4731 55.7041 85.6871 56.9096 85.195 58.2424C84.7021 59.5758 84.5163 61.0024 84.6497 62.4167V74.7614H102.826L99.8789 93.8097H84.7316V139.591C100.206 137.148 114.29 129.247 124.43 117.323C134.57 105.398 140.093 90.2404 139.999 74.5979Z" fill="#BA8E5C"/>
</svg>
