<svg width="311" height="311" viewBox="0 0 311 311" fill="none" xmlns="http://www.w3.org/2000/svg">
<circle cx="155.5" cy="155.5" r="148" fill="#FEDFB2" stroke="#BA8E5C" stroke-width="15"/>
<g clip-path="url(#clip0_109_4)">
<path d="M164.291 117.312L157.505 124.441L164.636 130.994L171.534 123.981L164.291 117.312Z" fill="#BA8E5C"/>
<path d="M150.379 121.222C150.379 121.222 157.965 145.136 179.925 125.246C180.043 125.359 185.903 133.062 186.021 133.062C177.512 142.604 151.527 147.779 150.379 121.222Z" fill="#BA8E5C"/>
<path d="M130.142 148.7L124.855 139.158C151.911 120.992 166.55 147.204 147.045 159.047L153.368 161.576C160.917 161.267 159.833 152.288 167.855 145.02C170.883 141.378 192.304 136.59 192.804 167.211C191.551 194.997 158.846 193.08 164.291 167.211C166.205 177.193 173.607 177.597 179.411 174.939C188.199 170.831 188.045 163.965 188.082 161.182C188.167 154.347 184.873 144.462 176.361 150.538C171.994 153.657 171.801 157.054 170.956 158.702C170.114 160.349 167.451 166.778 156.009 164.795C166.685 186.865 149.008 192.725 147.273 193.08C142.79 195.335 115.501 192.894 118.414 157.781C120.752 176.178 130 186.003 144.744 182.27C155.906 179.446 155.857 159.353 138.651 165.945L134.742 153.757C134.575 153.241 140.279 155.209 146.125 153.644C150.871 152.374 154.793 143.099 142.33 143.065C136.869 143.052 134.206 146.822 130.142 148.7Z" fill="#BA8E5C"/>
<path d="M258.78 146.217C249.231 134.367 246.293 127.004 235.055 125.873C236.458 123.995 238.183 122.399 239.87 120.784C237.263 120.793 234.631 120.828 232.071 120.284C237.801 112.987 236.8 107.484 236.227 101.707C234.443 84.295 233.51 84.9829 238.854 72.4716C228.849 76.5498 227.584 76.8852 216.372 75.3454C205.222 73.8497 198.662 72.0701 190.745 78.4371C190.4 76.1263 190.51 73.7885 190.542 71.4606C188.674 73.2794 186.882 75.223 184.647 76.6085C184.03 70.6797 181.705 66.4889 177.113 62.6921C166.369 53.7891 164.496 52.8784 161.728 49.6301C158.1 45.4368 156.722 40.2961 155.698 38H155.603C154.2 41.7796 152.609 45.591 150.031 48.7415C145.363 54.5136 133.244 61.0031 129.202 66.9295C127.261 69.654 126.24 72.9342 125.866 76.2365C123.981 74.8558 122.429 73.1031 120.798 71.4483C120.791 74.0627 120.825 76.6991 120.282 79.2719C113.195 73.3724 106.691 74.5915 101.932 75.0541C84.2754 76.8607 85.1983 77.7958 72.4887 72.4495C75.3797 79.688 77.0834 82.8458 75.7151 92.2801C73.5731 107.159 72.2708 112.652 78.4273 120.568C76.1214 120.899 73.7885 120.791 71.4679 120.764C73.3039 122.62 75.2132 124.443 76.6232 126.659C69.4655 127.3 65.5244 130.612 61.6591 135.444C50.0413 149.823 50.1049 151.108 38 155.588V155.647C45.1773 158.582 48.8712 160.136 53.8209 166.714C62.9785 178.814 64.3102 180.18 66.3322 181.668C69.1816 183.866 72.7017 185.071 76.2658 185.426C74.8485 187.289 73.1301 188.885 71.4581 190.513C74.0701 190.505 76.7065 190.478 79.2719 191.027C73.3479 198.101 74.5939 204.688 75.0786 209.584C76.846 226.71 77.8154 226.419 72.4471 238.817C84.3709 233.909 84.3586 234.604 101.186 236.739C106.782 237.39 113.105 238.852 120.568 232.857C120.891 235.175 120.813 237.52 120.759 239.853C122.593 237.99 124.441 236.098 126.661 234.688C127.224 240.315 129.432 244.653 133.99 248.435C150.225 261.852 150.428 260.129 155.515 273H155.74C158.078 267.573 159.448 263.113 165.97 258.07C177.906 248.651 184.322 245.875 185.431 235.04C187.289 236.462 188.899 238.164 190.515 239.85C190.52 237.238 190.468 234.6 191.032 232.032C198.61 238.333 205.34 236.565 211.148 236.066C226.211 234.702 225.953 233.238 238.834 238.864C236.756 233.662 234.374 229.275 235.307 221.298C237.163 205.758 239.745 199.264 232.859 190.745C235.17 190.4 237.508 190.508 239.836 190.532C238.002 188.679 236.095 186.865 234.688 184.655C239.823 184.07 244.107 182.312 247.931 177.894C260.973 162.716 258.853 161.28 273 155.799V155.564C268.829 153.681 263.725 152.298 258.78 146.217ZM234.622 122.901C230.497 127.515 230 131.185 227.028 141.18C226.142 144.005 225.165 148.328 219.721 150.991C217.643 148.697 215.929 146.107 213.951 143.733C214.189 142.602 214.6 141.515 214.896 140.399C216.989 133.055 217.413 132.884 222.331 128.044C213.861 128.054 214.277 127.621 204.916 122.292C204.659 119.195 204.05 116.118 204.116 113.002C215.405 109.217 221.768 121.878 234.622 122.901ZM202.745 202.688C198.231 201.269 195.333 202.047 190.317 202.544C192.04 199.347 192.052 195.426 190.65 192.111C191.254 191.497 191.854 190.877 192.459 190.258C195.829 191.617 199.768 191.465 202.941 189.646C202.412 194.672 201.325 197.599 202.745 202.688ZM154.607 206.172C155.471 206.16 156.33 206.172 157.192 206.135C158.807 209.506 161.04 211.939 165.042 213.126C161.162 216.279 158.163 217.711 155.691 222.211C153.407 217.763 150.237 216.059 147.023 213.315C150.492 212.272 153.285 209.516 154.607 206.172ZM130.218 217.165C129.824 212.262 127.723 209.724 124.943 204.385C123.435 201.465 121.398 198.86 122.845 194.052C130.999 201.092 141.488 205.359 152.237 206.052C151.552 207.34 150.697 208.566 149.549 209.484C145.424 212.899 136.037 212.338 130.218 217.165ZM159.613 206.015C170.352 205.2 180.787 200.826 188.87 193.7C191.805 202.238 182.028 207.746 181.166 217.09C176.146 213.41 174.694 213.883 168.905 211.986C165.48 210.842 162.117 210.615 159.613 206.015ZM188.429 189.369C175.732 201.775 157.24 205.753 140.83 200.297C122.174 194.14 108.982 176.599 108.637 156.673C107.986 131.983 126.886 111.357 150.457 108.906C160.335 107.805 170.557 109.883 179.147 114.901C206.206 130.446 210.769 167.749 188.429 189.369ZM108.566 108.625C113.555 110.091 116.297 109.183 120.984 108.764C118.497 113.57 120.088 117.494 120.647 119.254C119.871 119.92 119.207 120.691 118.497 121.423C114.728 119.763 112.084 119.709 108.365 121.648C108.882 117.342 109.952 112.884 108.566 108.625ZM109.469 123.582C112.845 121.863 114.586 122.304 116.95 123.17C110.106 131.297 105.922 141.628 105.252 152.237C97.1441 148.23 100.317 137.88 94.1479 130.211C99.0535 129.863 101.35 127.799 109.469 123.582ZM105.137 154.616C105.127 155.471 105.134 156.33 105.166 157.187C101.656 158.873 99.4403 161.052 98.1722 165.032C95.5921 161.806 93.367 158.056 89.6339 156.009C89.4503 155.948 88.9632 155.595 89.4307 155.495C93.1271 153.637 95.4746 150.119 97.9813 146.976C99.0045 150.477 101.785 153.275 105.137 154.616ZM101.663 162.78C102.561 161.404 103.891 160.376 105.315 159.593C106.037 170.359 110.534 180.745 117.574 188.892C115.195 189.663 112.524 189.666 110.25 188.557C102.642 184.667 99.5578 181.634 94.1797 181.159C95.4208 179.661 96.4514 177.979 97.1196 176.148C98.608 172.102 99.9788 165.204 101.663 162.78ZM108.764 190.307C111.942 192.042 115.876 192.055 119.173 190.64C119.809 191.22 120.39 191.864 121.041 192.432C119.692 195.815 119.849 199.744 121.643 202.936C116.563 202.368 113.452 201.349 108.62 202.735C110.072 198.106 109.21 195.085 108.764 190.307ZM157.245 105.161C156.198 105.124 155.15 105.119 154.102 105.163C152.327 101.22 149.733 99.3056 146.266 98.1698C150.807 94.6032 153.297 93.2862 155.61 89.0978C157.72 93.0757 159.921 94.4759 164.32 97.9862C160.44 99.1906 158.697 101.359 157.245 105.161ZM173.367 97.7879C176.141 97.0829 178.878 96.0083 181.086 94.1381C181.862 103.489 191.054 109.315 188.461 117.207C180.388 110.363 170.158 106.02 159.581 105.305C161.59 100.525 163.353 100.356 173.367 97.7879ZM151.711 105.308C140.959 106.05 130.534 110.497 122.434 117.584C120.514 111.947 123.42 109.271 128.12 100.65C129.231 98.6545 129.87 96.4342 130.179 94.1797C136.756 100.079 147.517 97.6288 151.711 105.308ZM202.542 120.987C199.34 119.266 195.421 119.244 192.101 120.664C191.506 120.039 190.882 119.445 190.258 118.847C191.617 115.474 191.47 111.526 189.641 108.356C195.056 109.012 198.106 109.915 202.688 108.561C201.232 113.195 202.089 116.204 202.542 120.987ZM217.119 130.144C213.822 134.142 213.643 137.209 211.934 142.56C210.669 146.418 210.537 149.101 206.013 151.698C205.215 140.952 200.826 130.504 193.692 122.426C196.177 121.606 198.97 121.643 201.315 122.867C209.496 127.212 212.049 129.692 217.119 130.144ZM194.067 188.447C201.088 180.288 205.371 169.815 206.052 159.069C214.076 162.971 211.156 173.854 217.161 181.076C211.932 181.597 209.731 183.609 204.598 186.256C201.665 187.732 198.911 189.972 194.067 188.447ZM206.162 156.675C206.184 155.818 206.167 154.959 206.145 154.102C209.65 152.479 211.932 150.117 213.122 146.293C216.284 150.034 217.41 152.895 222.196 155.61C218.044 157.794 216.482 160.408 213.322 164.298C212.279 160.81 209.501 158.034 206.162 156.675ZM200.649 77.2768C203.442 76.8068 206.26 77.3111 209.038 77.6391C222.132 79.2792 225.594 80.3367 233.106 78.114C230.688 85.6389 231.723 89.2692 233.265 104.035C233.811 109.276 233.569 114.25 228.688 119.2C219.131 114.923 213.677 108.03 204.429 110.593C204.909 108.522 205.854 106.603 206.681 104.654C204.505 105.504 202.375 106.544 200.042 106.889C201.036 103.433 200.738 99.6361 199.144 96.4073C195.377 88.8799 192.982 85.5557 191.624 81.9132C194.113 79.5656 197.225 77.7615 200.649 77.2768ZM188.329 76.6477C189.152 89.5262 201.403 96.1478 197.678 107.043C194.559 106.914 191.489 106.29 188.39 105.971C186.794 102.767 184.596 99.805 183.68 96.2996C183.073 93.9153 183.252 91.438 183.279 89.0097C177.238 94.7574 178.3 94.1381 166.88 97.2396C164.535 95.2127 161.94 93.4722 159.767 91.2495C161.216 88.2606 163.791 85.8054 166.959 84.7405C173.216 82.699 179.864 81.5019 183.433 79.8006C185.21 79.0051 186.838 77.8986 188.329 76.6477ZM133.574 66.621C138.105 62.2026 148.435 55.7988 152.499 50.7365C153.701 49.2947 154.697 47.6962 155.595 46.0512C159.27 53.2774 163.233 55.4316 172.151 62.724C176.288 66.1755 181.223 69.2477 181.556 78.1997C178.988 79.2278 176.258 79.7443 173.607 80.513C167.213 82.3734 161.967 82.8899 158.298 89.2741C157.123 87.514 156.491 85.4798 155.686 83.5435C154.734 85.6756 153.924 87.891 152.567 89.8175C148.027 81.4089 138.795 82.2583 128.974 78.114C128.977 73.8914 130.541 69.6099 133.574 66.621ZM122.896 76.6918C124.441 78.0185 126.113 79.2156 127.973 80.0626C131.2 81.617 133.99 81.9523 143.539 85.0171C146.805 86.0477 149.515 88.503 150.998 91.5751C148.709 93.673 146.093 95.3718 143.713 97.3644C142.808 97.1564 141.934 96.8357 141.038 96.5933C133.508 94.3241 133.625 94.6717 128.061 88.973C127.985 97.4942 127.736 96.8455 122.294 106.387C119.2 106.642 116.125 107.254 113.012 107.188C110.791 100.62 113.841 96.9091 116.916 91.3328C119.557 86.5128 122.35 83.2106 122.896 76.6918ZM78.1042 78.1997C84.9902 80.4028 89.3132 79.617 95.0781 78.9683C97.974 78.6256 100.877 78.3637 103.776 78.0651C108.015 77.6391 113.516 77.1177 119.202 82.5937C117.861 85.6291 116.358 87.5801 112.324 94.9704C110.111 98.8503 109.467 102.488 110.598 106.872C108.517 106.409 106.613 105.433 104.654 104.627C105.531 106.791 106.525 108.941 106.894 111.266C103.597 110.321 99.991 110.537 96.8577 111.952C92.2703 114.096 85.3966 118.392 81.9156 119.677C70.8486 107.966 83.0123 94.2164 78.1042 78.1997ZM94.9802 115.393C97.4232 114.084 101.788 111.577 107.036 113.692C106.926 116.671 106.312 119.606 106.025 122.573C106.057 123.026 105.538 123.134 105.237 123.329C102.522 124.666 100.013 126.453 97.1196 127.395C94.5004 128.25 91.722 128.061 89.0121 128.034C95.0609 134.21 94.2874 133.799 97.2371 144.406C95.2347 146.778 93.4698 149.363 91.2397 151.539C80.6158 146.323 85.0416 133.009 76.6844 122.982C82.743 122.563 85.1811 120.749 94.9802 115.393ZM54.942 163.003C52.499 160.014 49.4807 157.507 46.0585 155.715C52.8809 152.146 54.4892 149.414 63.6982 137.973C65.309 135.995 66.927 133.946 69.0836 132.526C71.7323 130.668 74.9929 129.851 78.1972 129.75C79.4408 132.815 79.8496 135.897 82.4958 144.666C83.6071 148.183 86.0869 151.228 89.3181 153.008C87.5018 154.127 85.492 154.864 83.5043 155.613C85.6242 156.575 87.9032 157.302 89.749 158.763C86.6181 160.494 84.1751 163.387 83.0123 166.768C80.2878 174.914 79.6415 179.125 78.0381 182.378C67.3089 181.92 65.3604 175.989 54.942 163.003ZM76.7016 188.402C80.7333 183.717 81.2571 180.231 82.7969 175.032C84.8947 168.053 85.257 166.352 86.8506 164.195C88.0501 162.511 89.7539 161.255 91.5702 160.303C93.6754 162.614 95.4428 165.208 97.3816 167.656C94.4196 176.506 95.952 176.559 88.9974 183.245C96.1796 183.272 96.2041 183.002 106.326 188.968C106.493 189.289 106.451 189.666 106.507 190.016C106.725 192.772 107.269 195.509 107.198 198.282C96.1307 202.135 89.5996 189.528 76.7016 188.402ZM111.097 233.956C109.1 234.352 106.992 234.521 93.2079 232.504C87.7123 231.738 83.7638 231.498 78.1923 233.202C80.7113 225.449 79.4799 221.846 77.9035 205.785C77.3576 200.294 78.8582 196.157 82.5252 192.128C83.9841 192.652 85.3035 193.484 86.6523 194.236C89.6682 196.038 92.7354 197.749 95.8124 199.443C99.1661 201.271 103.195 201.736 106.877 200.706C106.397 202.784 105.462 204.71 104.62 206.661C106.777 205.763 108.941 204.794 111.261 204.407C110.375 207.548 110.502 210.977 111.766 213.998C113.462 217.986 118.282 225.63 119.68 229.378C117.308 231.638 114.351 233.383 111.097 233.956ZM122.977 234.648C122.502 226.58 118.294 222.906 113.956 213.472C112.654 210.588 112.603 207.229 113.641 204.258C116.764 204.414 119.853 204.98 122.955 205.352C124.522 208.627 126.806 211.604 127.665 215.18C128.225 217.511 128.054 219.924 128.027 222.301C133.816 216.553 133.755 216.918 144.426 214.081C146.785 216.071 149.343 217.831 151.527 220.025C146.675 230.543 132.556 226.414 122.977 234.648ZM179.333 242.788C177.561 245.27 175.703 246.58 164.77 254.974C161.052 257.696 157.833 261.142 155.706 265.252C152.026 257.759 146.727 254.937 140.389 249.569C135.731 245.627 129.961 242.467 129.76 233.101C132.218 232.122 134.818 231.596 137.361 230.893C144.279 228.947 149.473 228.269 153.015 221.998C154.149 223.807 154.859 225.834 155.635 227.811C156.521 225.66 157.36 223.457 158.717 221.545C159.967 223.537 161.49 225.422 163.512 226.678C167.284 229.256 177.984 231.141 182.373 233.251C182.239 236.617 181.357 240.044 179.333 242.788ZM188.407 234.622C185.825 232.272 182.635 230.671 179.289 229.726C167.137 226.223 163.607 225.927 160.317 219.792C161.703 218.358 167.541 214.015 167.691 213.92C171.331 215.219 175.36 215.677 178.586 217.954C180.351 219.165 181.761 220.796 183.25 222.318C183.333 213.163 183.83 214.282 188.992 204.936C192.089 204.649 195.178 204.05 198.299 204.116C199.352 207.251 199.293 210.789 197.805 213.775C192.275 224.651 189.174 226.676 188.407 234.622ZM234.024 200.605C234.573 204.072 233.775 207.543 233.434 210.989C232.475 219.819 230.715 225.18 233.199 233.111C229.679 231.929 225.934 231.452 222.228 231.718C206.407 232.862 200.084 236.22 192.106 228.734C196.569 218.639 203.222 213.991 200.701 204.427C202.777 204.916 204.72 205.824 206.661 206.693C205.78 204.522 204.779 202.365 204.412 200.033C207.92 201.07 211.783 200.711 215.05 199.075C218.137 197.496 221.187 195.839 224.208 194.14C225.912 193.225 227.594 192.224 229.447 191.641C231.723 194.153 233.544 197.205 234.024 200.605ZM213.814 197.193C210.852 198.642 207.349 198.74 204.255 197.663C204.4 194.552 205.014 191.487 205.325 188.39C208.977 186.596 212.348 183.928 216.495 183.401C218.421 183.12 220.372 183.277 222.311 183.284C217.55 178.469 216.766 178.143 214.086 166.841C216.132 164.523 217.817 161.894 220.069 159.762C221.949 160.756 223.714 162.056 224.938 163.818C227.652 167.534 228.964 177.323 231.182 182.728C232.034 184.767 233.238 186.642 234.656 188.331C227.647 188.672 224.666 191.751 213.814 197.193ZM246.318 174.887C242.812 179.196 238.972 181.335 233.101 181.548C231.838 178.239 231.202 174.738 230.171 171.355C228.72 166.474 228.343 162.246 222.017 158.254C223.838 157.167 225.838 156.45 227.802 155.676C225.645 154.763 223.417 153.938 221.503 152.553C224.541 150.908 226.952 148.154 228.147 144.908C229.882 140.152 231.669 132.296 233.238 128.94C243.035 129.244 246.11 135.292 249.659 139.628C255.172 146.396 257.625 151.542 265.25 155.598C258.085 159.162 256.014 163.04 246.318 174.887Z" fill="#BA8E5C"/>
</g>
<defs>
<clipPath id="clip0_109_4">
<rect width="235" height="235" fill="white" transform="translate(38 38)"/>
</clipPath>
</defs>
</svg>
