<svg width="150" height="150" viewBox="0 0 150 150" fill="none" xmlns="http://www.w3.org/2000/svg">
<circle cx="75" cy="75" r="70" fill="#FEDFB2" stroke="white" stroke-width="10"/>
<path d="M93.1578 85.7481C91.8701 84.9932 90.2876 85.0089 89.0057 85.7704L82.5168 89.6368C81.0639 90.5025 79.25 90.4009 77.9177 89.361C75.6149 87.562 71.9071 84.5364 68.6817 81.311C65.4554 78.0847 62.4299 74.3769 60.6317 72.0749C59.591 70.7426 59.4894 68.9279 60.3558 67.4759L64.2222 60.9862C64.9863 59.7051 64.9929 58.1093 64.2379 56.8216L54.7161 40.5564C53.7934 38.9838 51.9598 38.2098 50.1872 38.6443C48.4651 39.0631 46.2283 40.084 43.885 42.4314C36.5454 49.771 32.6468 62.15 60.2476 89.7508C87.8485 117.352 100.225 113.456 107.567 106.113C109.918 103.764 110.935 101.524 111.357 99.7988C111.785 98.0288 111.025 96.2083 109.454 95.2882C105.534 92.9953 97.0779 88.0444 93.1578 85.7481Z" fill="#BA8E5C"/>
</svg>
