<svg width="465" height="470" viewBox="0 0 465 470" fill="none" xmlns="http://www.w3.org/2000/svg">
<mask id="mask0_28_189" style="mask-type:luminance" maskUnits="userSpaceOnUse" x="0" y="0" width="465" height="470">
<path d="M0 0H464.341V470H0V0Z" fill="white"/>
</mask>
<g mask="url(#mask0_28_189)">
<path d="M454.412 372.164C455.464 372.783 456.142 373.824 456.38 375.016C456.603 376.196 456.446 377.567 455.68 378.72C454.187 381.06 451.308 381.88 449.252 380.556L445.523 378.174L415.688 359.1L408.232 354.331L400.773 349.562C400.773 349.562 401.811 347.949 402.851 346.334C403.395 345.538 403.833 344.684 404.2 344.064C404.557 343.44 404.797 343.022 404.797 343.022L412.43 347.506L420.063 351.988L427.695 356.473L442.96 365.437L450.593 369.922L454.412 372.164ZM449.712 353.146L441.837 349.102L433.964 345.058L410.339 332.926C410.339 332.926 409.466 334.635 408.594 336.346C408.18 337.215 407.661 338.025 407.311 338.655C406.952 339.276 406.712 339.692 406.712 339.692L414.427 344.03L422.143 348.37L429.859 352.708L437.575 357.048L445.293 361.386L449.151 363.555C450.216 364.154 451.447 364.233 452.581 363.866C453.702 363.491 454.784 362.703 455.374 361.499C456.603 359.112 455.829 356.277 453.65 355.168L449.712 353.146ZM435.538 377.339L428.173 372.431L420.804 367.523L413.439 362.617L398.702 352.801C398.702 352.801 398.445 353.207 398.058 353.814C397.64 354.402 397.084 355.183 396.526 355.966C395.41 357.53 394.298 359.097 394.298 359.097L401.473 364.279L408.65 369.459L423.005 379.824L430.182 385.003L433.771 387.596C435.749 389.033 438.613 388.428 440.165 386.24C440.936 385.145 441.24 383.887 441.063 382.717C440.87 381.535 440.238 380.472 439.222 379.794L435.538 377.339ZM447.678 336.904L439.587 333.316L431.494 329.725L423.404 326.136L415.311 322.545C415.311 322.545 414.521 324.295 413.732 326.043C413.336 326.917 412.942 327.793 412.645 328.447C412.315 329.088 412.095 329.514 412.095 329.514L420.043 333.409L427.994 337.301L435.945 341.195L443.893 345.09L447.868 347.036C448.965 347.575 450.194 347.602 451.298 347.2C452.39 346.791 453.305 345.932 453.841 344.757C454.911 342.397 453.961 339.685 451.724 338.701L447.678 336.904ZM420.373 383.481L413.294 378.164L406.217 372.849L399.138 367.533L392.061 362.218L387.307 368.26L394.181 373.836L401.055 379.415L418.239 393.356C420.131 394.903 422.966 394.509 424.567 392.472C426.168 390.435 425.874 387.596 423.913 386.137L420.373 383.481ZM444.547 321.274L427.979 315.027L419.698 311.904L416.885 319.044L433.203 325.918L441.362 329.352L445.44 331.071C447.69 332.028 450.258 330.919 451.176 328.594C452.091 326.271 450.977 323.693 448.689 322.839L444.547 321.274ZM405.152 388.333L398.386 382.626L391.618 376.923L384.849 371.217L379.816 377.028L386.367 382.984L399.463 394.895L402.739 397.872C404.548 399.527 407.331 399.331 408.969 397.446C410.606 395.559 410.413 392.754 408.538 391.184L405.152 388.333ZM440.378 306.33L423.482 301.037L421.017 308.303L429.36 311.27L437.7 314.234L441.871 315.718C444.17 316.545 446.662 315.368 447.433 313.089C448.204 310.81 446.936 308.376 444.601 307.654L440.378 306.33ZM390.029 391.96L383.594 385.882L377.156 379.806C377.156 379.806 375.831 381.197 374.504 382.59C373.836 383.28 373.202 384.007 372.664 384.484C372.14 384.981 371.79 385.312 371.79 385.312L377.995 391.625L384.198 397.938L387.3 401.096C389.001 402.836 391.838 402.952 393.468 401.179C395.128 399.436 395.03 396.67 393.248 394.998L390.029 391.96ZM246.476 460.649L245.79 451.824L245.105 443.002C245.105 443.002 243.188 443.149 241.272 443.298C240.315 443.379 239.355 443.455 238.63 443.45C237.911 443.467 237.428 443.479 237.428 443.479L237.783 452.321L238.138 461.165L238.317 465.586C238.366 466.808 238.887 467.902 239.707 468.681C240.116 469.067 240.598 469.395 241.127 469.584C241.656 469.767 242.234 469.848 242.831 469.804C245.232 469.621 247.017 467.498 246.819 465.062L246.476 460.649ZM435.178 292.12L426.594 289.958C426.594 289.958 426.496 290.428 426.319 291.126C426.121 291.819 425.857 292.739 425.592 293.662C425.069 295.508 424.542 297.351 424.542 297.351L433.039 299.838L437.289 301.079C439.631 301.774 442.042 300.533 442.676 298.308C442.992 297.199 442.799 296.068 442.231 295.148C441.631 294.218 440.654 293.498 439.472 293.202L435.178 292.12ZM375.089 394.391L369.004 387.963C369.004 387.963 367.616 389.292 366.228 390.621C365.518 391.268 364.774 391.88 364.233 392.357C363.69 392.827 363.325 393.14 363.325 393.14L369.163 399.794L372.083 403.12C373.684 404.956 376.419 405.238 378.152 403.703C379.826 402.105 379.819 399.375 378.132 397.605L375.089 394.391ZM315.363 434.246L311.764 426.16C311.764 426.16 310.016 426.951 308.269 427.744C306.482 428.444 304.695 429.144 304.695 429.144L307.985 437.359L309.627 441.467C310.528 443.739 313.003 444.894 315.157 444.05C317.27 443.105 318.163 440.515 317.162 438.287L315.363 434.246ZM304.259 438.831L301.126 430.554C301.126 430.554 300.68 430.73 300.012 430.995C299.351 431.281 298.438 431.582 297.527 431.883C295.711 432.495 293.892 433.11 293.892 433.11L298.115 445.697C298.883 448.015 301.285 449.295 303.476 448.556C304.022 448.37 304.501 448.079 304.898 447.709C305.292 447.337 305.591 446.852 305.801 446.343C306.22 445.318 306.257 444.113 305.826 442.97L304.259 438.831ZM257.753 450.564L256.571 441.793C256.571 441.793 254.664 442.035 252.76 442.28C251.805 442.402 250.853 442.527 250.138 442.618C249.423 442.691 248.941 442.715 248.941 442.715L249.793 451.526L250.216 455.932C250.334 457.143 250.902 458.221 251.732 458.948C252.557 459.65 253.648 460.008 254.791 459.863C257.088 459.569 258.676 457.371 258.343 454.95L257.753 450.564ZM233.769 452.421L233.578 443.572C233.578 443.572 231.654 443.624 229.727 443.678C228.765 443.722 227.803 443.641 227.081 443.638C226.359 443.619 225.879 443.604 225.879 443.604L225.742 452.453L225.674 456.879C225.627 459.305 227.465 461.388 229.784 461.376C232.099 461.315 233.925 459.288 233.864 456.845L233.769 452.421ZM151.431 437.842L154.669 429.604C154.669 429.604 152.882 428.904 151.098 428.202C150.65 428.028 150.204 427.852 149.786 427.688C149.377 427.502 148.993 427.328 148.667 427.176C148.011 426.88 147.573 426.682 147.573 426.682L144.026 434.789L142.251 438.843C141.761 439.962 141.737 441.166 142.104 442.211C142.288 442.735 142.569 443.217 142.936 443.631C143.306 444.032 143.774 444.336 144.31 444.551C146.464 445.396 148.926 444.238 149.813 441.962L151.431 437.842ZM140.376 433.139L144.077 425.098C144.077 425.098 143.639 424.902 142.983 424.606C142.329 424.305 141.446 423.93 140.581 423.512C138.875 422.635 137.167 421.756 137.167 421.756L133.164 429.648L131.162 433.597C130.051 435.773 130.817 438.392 132.875 439.45C134.973 440.427 137.514 439.377 138.525 437.159L140.376 433.139ZM432.655 244.361C432.655 244.361 432.608 246.285 432.559 248.209C432.53 249.171 432.532 250.135 432.486 250.855C432.427 251.572 432.39 252.052 432.39 252.052L436.809 252.309C438.03 252.38 439.169 252.003 440.025 251.325C440.882 250.65 441.369 249.665 441.406 248.557C441.46 246.331 439.524 244.493 437.081 244.451L432.655 244.361ZM432.092 255.886C432.092 255.886 431.95 257.802 431.808 259.719C431.766 260.199 431.749 260.681 431.693 261.127C431.634 261.575 431.58 261.991 431.534 262.348C431.443 263.06 431.379 263.538 431.379 263.538L435.778 264.042C436.992 264.182 438.148 263.868 439.036 263.239C439.927 262.612 440.561 261.67 440.62 260.561C440.784 258.343 438.946 256.402 436.508 256.223L432.092 255.886ZM430.895 267.349C430.895 267.349 430.655 269.254 430.415 271.161C430.075 273.048 429.732 274.938 429.732 274.938L434.094 275.689C436.5 276.113 438.77 274.683 439.166 272.5C439.445 270.294 437.705 268.25 435.281 267.934L430.895 267.349ZM429.059 278.717C429.059 278.717 428.975 279.19 428.851 279.897C428.789 280.252 428.716 280.666 428.64 281.109C428.537 281.547 428.427 282.015 428.319 282.482C427.886 284.35 427.45 286.218 427.45 286.218L431.764 287.216C434.143 287.777 436.476 286.477 436.98 284.313C437.103 283.775 437.11 283.239 436.987 282.725C436.85 282.208 436.608 281.721 436.275 281.29C435.617 280.424 434.606 279.78 433.406 279.55L429.059 278.717ZM360.419 395.659C360.419 395.659 360.057 395.975 359.513 396.447C359.239 396.685 358.923 396.959 358.581 397.255C358.226 397.532 357.849 397.828 357.469 398.124C355.957 399.309 354.444 400.494 354.444 400.494L357.171 403.98C358.671 405.911 361.303 406.361 363.056 404.991C363.491 404.648 363.829 404.227 364.062 403.759C364.279 403.272 364.399 402.741 364.414 402.195C364.446 401.108 364.064 399.972 363.276 399.04L360.419 395.659ZM351.425 402.873C351.425 402.873 351.33 402.949 351.166 403.079C351.004 403.213 350.76 403.387 350.463 403.593C349.876 404.011 349.09 404.565 348.307 405.12C346.74 406.234 345.176 407.348 345.176 407.348L347.702 410.981C349.09 412.993 351.685 413.578 353.496 412.29C355.315 411.01 355.582 408.381 354.086 406.41L351.425 402.873ZM342.016 409.534L335.546 413.681L337.864 417.451C339.137 419.536 341.683 420.253 343.553 419.054C345.426 417.854 345.837 415.24 344.473 413.213L342.016 409.534ZM332.239 415.632C332.239 415.632 330.574 416.589 328.91 417.546C328.08 418.026 327.247 418.508 326.623 418.868C326.315 419.051 326.053 419.198 325.862 419.289C325.673 419.382 325.568 419.438 325.568 419.438L327.668 423.333C328.241 424.4 329.179 425.206 330.18 425.536C331.189 425.879 332.297 425.81 333.257 425.257C335.181 424.148 335.734 421.548 334.486 419.446L332.239 415.632ZM322.146 421.181C322.146 421.181 320.437 422.057 318.731 422.934C318.305 423.154 317.877 423.374 317.478 423.58C317.071 423.776 316.687 423.94 316.359 424.089C315.701 424.383 315.265 424.581 315.265 424.581L317.14 428.589C317.656 429.695 318.528 430.518 319.529 430.943C320.028 431.159 320.562 431.276 321.096 431.279C321.617 431.262 322.141 431.132 322.633 430.88C324.609 429.864 325.299 427.284 324.173 425.115L322.146 421.181ZM290.259 434.346C290.259 434.346 290.147 434.385 289.948 434.451C289.75 434.527 289.461 434.606 289.116 434.701C288.423 434.897 287.498 435.156 286.575 435.416C284.73 435.94 282.884 436.466 282.884 436.466L284.049 440.735C284.685 443.092 286.933 444.512 289.07 443.908C291.209 443.313 292.338 440.924 291.586 438.566L290.259 434.346ZM279.183 437.477L271.704 439.2L272.625 443.528C273.124 445.92 275.283 447.452 277.447 446.953C279.611 446.453 280.874 444.133 280.267 441.766L279.183 437.477ZM267.939 439.949L260.38 441.305L261.056 445.68C261.418 448.096 263.484 449.734 265.672 449.342C267.858 448.95 269.249 446.693 268.779 444.294L267.939 439.949ZM222.029 443.509C222.029 443.509 221.546 443.496 220.824 443.479C220.105 443.452 219.138 443.465 218.18 443.396C216.264 443.247 214.345 443.097 214.345 443.097L214.029 447.511C213.848 449.949 215.498 452.062 217.713 452.235C219.936 452.333 221.803 450.363 221.877 447.93L222.029 443.509ZM210.509 442.809C210.509 442.809 210.029 442.774 209.309 442.72C208.952 442.691 208.531 442.671 208.083 442.622C207.635 442.564 207.16 442.503 206.683 442.441C204.778 442.197 202.874 441.952 202.874 441.952L202.308 446.341C201.99 448.764 203.517 450.955 205.721 451.239C206.271 451.31 206.807 451.254 207.304 451.092C207.804 450.914 208.266 450.617 208.665 450.245C209.461 449.504 210.002 448.434 210.11 447.217L210.509 442.809ZM199.06 441.474C199.06 441.474 198.582 441.423 197.87 441.315C197.163 441.188 196.218 441.017 195.273 440.845C193.383 440.507 191.493 440.17 191.493 440.17L190.683 444.52C190.225 446.921 191.628 449.18 193.816 449.575C194.906 449.77 195.97 449.459 196.8 448.796C197.638 448.106 198.237 447.058 198.416 445.851L199.06 441.474ZM187.716 439.487L180.238 437.756L179.18 442.052C178.588 444.424 179.863 446.747 182.025 447.249C184.189 447.748 186.335 446.216 186.823 443.822L187.716 439.487ZM176.519 436.811L169.136 434.718L167.834 438.948C167.107 441.283 168.25 443.663 170.387 444.267C172.524 444.875 174.759 443.452 175.379 441.088L176.519 436.811ZM165.494 433.514C165.494 433.514 163.675 432.899 161.859 432.285C160.948 431.979 160.04 431.673 159.357 431.445C159.012 431.34 158.74 431.213 158.544 431.139C158.348 431.063 158.236 431.019 158.236 431.019L156.696 435.169C156.273 436.307 156.292 437.526 156.696 438.52C157.105 439.501 157.888 440.285 158.936 440.64C161.041 441.35 163.357 440.042 164.113 437.719L165.494 433.514ZM133.749 420.009C133.749 420.009 133.321 419.791 132.68 419.465C132.026 419.159 131.208 418.65 130.374 418.178C128.709 417.218 127.047 416.261 127.047 416.261L124.824 420.087C123.588 422.197 124.151 424.804 126.075 425.913C127.98 427.061 130.54 426.065 131.674 423.918L133.749 420.009ZM59.7121 395.926L66.2235 389.931L72.7375 383.936L79.2489 377.939C79.2489 377.939 78.916 377.594 78.4166 377.072C77.9442 376.529 77.3151 375.802 76.686 375.075C75.4277 373.623 74.1695 372.169 74.1695 372.169L67.4353 377.917L60.7035 383.662L50.6058 392.284C48.7405 393.865 48.5545 396.678 50.1921 398.565C51.0122 399.502 52.1064 400.034 53.2471 400.092C54.4001 400.141 55.558 399.752 56.4564 398.925L59.7121 395.926ZM7.49802 177.66L16.0192 180.054L24.5429 182.451L33.0641 184.847C33.0641 184.847 33.5855 183.001 34.1093 181.156C34.3664 180.23 34.6185 179.305 34.8706 178.629C35.1032 177.949 35.2574 177.496 35.2574 177.496L26.8317 174.779L18.4084 172.062L9.98266 169.342L5.76979 167.983C4.60703 167.609 3.39287 167.741 2.36964 168.267C1.86292 168.534 1.38068 168.889 1.01839 169.342C0.658544 169.792 0.377033 170.328 0.208127 170.926C-0.477289 173.33 0.878857 175.809 3.2362 176.463L7.49802 177.66ZM74.9871 398.886L81.1509 392.533L87.3173 386.181C87.3173 386.181 86.9672 385.85 86.4458 385.353C85.9342 384.847 85.1998 384.223 84.556 383.508C83.2317 382.112 81.9049 380.72 81.9049 380.72L75.5085 386.837L65.9102 396.009C64.1379 397.693 64.0474 400.469 65.707 402.212C66.1134 402.653 66.6079 402.966 67.1464 403.16C67.6801 403.36 68.2455 403.451 68.8086 403.434C69.937 403.402 71.0533 402.939 71.9027 402.06L74.9871 398.886ZM57.9839 380.494L64.8233 374.874L71.6628 369.256L66.9139 363.21L52.8237 373.927L49.3011 376.607C47.3501 378.081 46.9756 380.808 48.4615 382.7C49.9498 384.592 52.6817 384.864 54.5641 383.305L57.9839 380.494ZM9.39516 266.913L18.1832 265.851L26.9736 264.789C26.9736 264.789 26.7264 262.884 26.4792 260.98C26.3372 259.063 26.1952 257.146 26.1952 257.146L17.3729 257.878L8.55063 258.608L4.13948 258.975C1.7038 259.168 -0.127237 261.271 0.0588047 263.67C0.364794 266.057 2.57526 267.748 5.0036 267.445L9.39516 266.913ZM12.9667 192.193L21.6127 194.098L30.2588 196.005C30.2588 196.005 30.6896 194.134 31.1204 192.267C31.3334 191.332 31.5488 190.396 31.7079 189.694C31.7838 189.344 31.8548 189.05 31.9184 188.852C31.9772 188.649 32.009 188.534 32.009 188.534L23.4438 186.301L14.876 184.069L10.5946 182.952C9.42209 182.646 8.18344 182.818 7.24589 183.386C6.29365 183.949 5.56907 184.889 5.29979 186.056C4.75881 188.401 6.25693 190.722 8.6461 191.239L12.9667 192.193ZM19.7474 168.108L28.1193 170.985L36.4911 173.863C36.4911 173.863 37.1007 172.044 37.7127 170.226C38.4152 168.441 39.1202 166.657 39.1202 166.657L30.8634 163.462L22.6066 160.27L18.4769 158.674C16.2053 157.785 13.6301 158.875 12.7659 161.119C11.9948 163.398 13.2457 165.883 15.5615 166.669L19.7474 168.108ZM90.0247 400.655L95.8213 393.968C95.8213 393.968 94.3673 392.709 92.9107 391.454C92.169 390.844 91.491 390.161 90.9671 389.664C90.4457 389.165 90.0981 388.834 90.0981 388.834L84.0542 395.299L81.031 398.533C80.1963 399.424 79.7752 400.55 79.7752 401.659C79.7777 402.758 80.1767 403.874 81.0653 404.609C82.818 406.124 85.5303 405.85 87.1239 403.999L90.0247 400.655ZM57.4796 365.352L64.6226 360.125L60.165 353.863L52.8286 358.818L49.1591 361.295C47.1249 362.656 46.5717 365.288 47.9131 367.173C49.257 369.058 51.9375 369.413 53.9056 367.963L57.4796 365.352ZM33.676 323.686L41.8129 320.197C41.8129 320.197 41.764 320.09 41.6758 319.899C41.5951 319.705 41.4531 319.438 41.3258 319.101C41.0639 318.432 40.7163 317.539 40.3662 316.645C39.6612 314.861 38.9587 313.076 38.9587 313.076L30.6945 316.251L26.5624 317.837C24.2785 318.706 23.1157 321.157 23.9627 323.309C24.3838 324.381 25.2234 325.164 26.2368 325.551C27.2698 325.93 28.4889 325.908 29.6076 325.428L33.676 323.686ZM19.9677 277.736L28.6823 276.176C28.6823 276.176 28.342 274.289 28.0018 272.399C27.9185 271.927 27.8231 271.457 27.7545 271.011C27.7007 270.563 27.6493 270.147 27.6052 269.79C27.5146 269.075 27.4559 268.6 27.4559 268.6L18.6875 269.826L14.3057 270.441C13.094 270.61 12.056 271.219 11.3584 272.081C11.0083 272.512 10.744 273.004 10.5848 273.533C10.4282 274.059 10.4208 274.617 10.5163 275.185C10.9276 277.462 13.2066 278.952 15.6104 278.514L19.9677 277.736ZM17.0669 253.876L25.9015 253.31C25.9015 253.31 25.8623 252.831 25.806 252.113C25.7497 251.394 25.6591 250.437 25.6591 249.472C25.6151 247.548 25.5685 245.624 25.5685 245.624L16.7193 245.859L12.2959 245.979C9.85047 246.035 7.91662 247.959 7.97292 250.275C7.97782 251.43 8.57756 252.444 9.43188 253.146C10.2886 253.849 11.4294 254.238 12.6484 254.16L17.0669 253.876ZM19.341 205.897L28.0801 207.309L29.4265 199.75L20.7486 198.01L16.4084 197.138C14.0119 196.648 11.7452 198.1 11.3364 200.377C10.93 202.653 12.5554 204.81 14.9715 205.192L19.341 205.897ZM32.3321 159.736L40.5253 163.088C40.5253 163.088 40.7016 162.64 40.9635 161.969C41.0957 161.633 41.2475 161.244 41.4115 160.826C41.5975 160.414 41.7958 159.979 41.9965 159.543C42.7872 157.795 43.5803 156.047 43.5803 156.047L35.5193 152.39L31.4901 150.562C29.2673 149.543 26.6921 150.427 25.7375 152.535C25.5025 153.061 25.3801 153.607 25.3898 154.15C25.4143 154.701 25.5514 155.244 25.7815 155.746C26.2466 156.755 27.1034 157.599 28.2343 158.062L32.3321 159.736ZM62.6325 108.061L69.565 113.566C69.565 113.566 70.7497 112.053 71.9345 110.538C73.1977 109.089 74.4583 107.637 74.4583 107.637L67.7388 101.877L64.3778 98.9962C62.5272 97.4001 59.8002 97.5225 58.2801 99.2703C56.8505 101.092 57.247 103.794 59.1662 105.307L62.6325 108.061ZM70.363 98.8444L76.9748 104.732C76.9748 104.732 77.2881 104.367 77.7581 103.821C78.2134 103.26 78.8891 102.577 79.5525 101.882C80.8817 100.492 82.2085 99.1014 82.2085 99.1014L75.8243 92.9718L72.6298 89.9071C70.8746 88.2082 68.155 88.1886 66.554 89.863C64.9237 91.508 65.2419 94.2986 67.0558 95.902L70.363 98.8444ZM78.588 90.0662L84.8571 96.3157C84.8571 96.3157 84.9403 96.2276 85.0848 96.0758C85.239 95.9314 85.4568 95.7233 85.7188 95.4761C86.2402 94.9791 86.9378 94.3182 87.6355 93.6573C89.0259 92.3305 90.4163 91.0037 90.4163 91.0037L84.3871 84.5241L81.3713 81.2855C79.7116 79.4887 77.0091 79.3296 75.3323 80.9281C73.6603 82.529 73.6921 85.1997 75.4522 86.9426L78.588 90.0662ZM123.713 414.351C123.713 414.351 123.605 414.298 123.426 414.185C123.25 414.07 122.998 413.908 122.697 413.713C122.09 413.323 121.282 412.802 120.474 412.283C118.856 411.247 117.238 410.212 117.238 410.212L114.805 413.906C113.451 415.943 113.875 418.562 115.745 419.764C117.618 420.958 120.144 420.253 121.417 418.136L123.713 414.351ZM114.044 408.08L107.777 403.63L105.138 407.182C103.674 409.137 103.956 411.764 105.77 413.052C107.581 414.339 110.164 413.749 111.539 411.73L114.044 408.08ZM104.739 401.275C104.739 401.275 103.229 400.087 101.716 398.9C100.959 398.31 100.201 397.718 99.6352 397.272C99.0893 396.802 98.7245 396.489 98.7245 396.489L95.8899 399.887C95.1065 400.824 94.7295 401.965 94.7663 403.054C94.825 404.114 95.3024 405.118 96.1738 405.801C97.9241 407.172 100.546 406.716 102.034 404.778L104.739 401.275ZM58.0989 350.625C58.0989 350.625 57.061 349.009 56.0231 347.394C54.946 345.8 54.0207 344.116 54.0207 344.116L50.2191 346.383C48.1212 347.621 47.2669 350.219 48.5031 352.067C49.7075 353.934 52.3365 354.368 54.383 353.034L58.0989 350.625ZM52.1089 340.787C52.1089 340.787 51.1493 339.122 50.1872 337.46C49.7124 336.625 49.3084 335.754 48.9706 335.117C48.6451 334.478 48.4272 334.05 48.4272 334.05L44.5007 336.096C42.3392 337.213 41.3699 339.741 42.4176 341.7C43.5289 343.624 46.1457 344.197 48.2656 342.978L52.1089 340.787ZM46.6745 330.633C46.6745 330.633 46.4542 330.207 46.1262 329.568C45.9597 329.247 45.7663 328.873 45.5607 328.474C45.36 328.072 45.1764 327.629 44.9756 327.191C44.1874 325.443 43.3992 323.693 43.3992 323.693L39.365 325.514C37.1325 326.51 36.0652 328.961 36.9783 330.985C37.4116 332.004 38.3222 332.677 39.3772 332.963C40.425 333.25 41.6171 333.152 42.7113 332.606L46.6745 330.633ZM37.5731 309.497L35.1179 302.23L30.9026 303.578C28.5697 304.315 27.2625 306.619 27.9724 308.721C28.6847 310.824 31.118 311.847 33.4117 311.008L37.5731 309.497ZM33.9894 298.563L31.8891 291.185L27.6028 292.291C25.2332 292.896 23.8109 295.113 24.418 297.248C25.0251 299.385 27.4094 300.54 29.7496 299.833L33.9894 298.563ZM31.0225 287.447C31.0225 287.447 30.5917 285.576 30.1584 283.709C29.9405 282.774 29.7227 281.838 29.5587 281.138C29.4338 280.431 29.3506 279.956 29.3506 279.956L25.008 280.818C23.8109 281.055 22.8 281.706 22.1415 282.575C21.5123 283.439 21.2602 284.516 21.5099 285.596C22.0117 287.757 24.3397 289.045 26.7166 288.472L31.0225 287.447ZM25.4682 241.773C25.4682 241.773 25.4535 241.294 25.4339 240.571C25.3972 239.849 25.4657 238.887 25.4804 237.925C25.5294 236.001 25.5808 234.077 25.5808 234.077L21.1574 233.95C18.7119 233.869 16.6875 235.61 16.6288 237.835C16.5259 240.06 18.6018 241.839 21.0423 241.81L25.4682 241.773ZM25.6714 230.227C25.6714 230.227 25.6738 230.107 25.6787 229.896C25.6763 229.686 25.6958 229.387 25.7277 229.027C25.784 228.307 25.8598 227.35 25.9357 226.391C26.0802 224.474 26.227 222.557 26.227 222.557L21.8159 222.183C19.3802 221.967 17.2726 223.59 17.1012 225.806C17.0155 226.912 17.4317 227.943 18.1758 228.701C18.9053 229.463 20.0412 229.962 21.248 230.018L25.6714 230.227ZM26.5355 218.724L27.5097 211.103L23.128 210.482C20.7094 210.129 18.5234 211.63 18.2419 213.833C17.9629 216.038 19.7009 218.024 22.1341 218.266L26.5355 218.724ZM45.1568 152.547C45.1568 152.547 45.2057 152.439 45.2914 152.246C45.3771 152.055 45.4946 151.778 45.6659 151.462C45.9964 150.823 46.4346 149.969 46.8752 149.117C47.7491 147.409 48.6255 145.7 48.6255 145.7L44.7064 143.646C42.5449 142.503 39.9721 143.181 38.9587 145.157C38.4519 146.141 38.4372 147.252 38.8289 148.241C39.223 149.232 40.0651 150.121 41.1618 150.645L45.1568 152.547ZM50.4076 142.3L54.2386 135.641L50.4418 133.367C48.3489 132.107 45.7565 132.645 44.6476 134.569C43.5412 136.496 44.3808 139.002 46.5276 140.17L50.4076 142.3ZM56.2605 132.378C56.2605 132.378 57.2984 130.76 58.3339 129.145C58.8529 128.334 59.3694 127.524 59.7562 126.917C59.9495 126.616 60.1087 126.359 60.2262 126.185C60.3486 126.016 60.4195 125.918 60.4195 125.918L56.7575 123.434C54.711 122.036 52.1187 122.445 50.9167 124.315C49.7197 126.185 50.4296 128.746 52.5079 130.033L56.2605 132.378ZM62.652 122.79C62.652 122.79 63.7658 121.223 64.8772 119.657C65.4304 118.871 65.9788 118.083 66.4414 117.529C66.8894 116.964 67.188 116.587 67.188 116.587L63.6704 113.899C62.6986 113.157 61.548 112.832 60.4612 112.915C59.9226 112.962 59.3816 113.094 58.9239 113.351C58.4686 113.608 58.0646 113.963 57.744 114.416C56.4588 116.23 57.0341 118.834 59.0365 120.237L62.652 122.79ZM93.2461 88.3991L99.0575 83.3638L96.2277 79.9587C94.6732 78.0738 92.0515 77.7287 90.3723 79.1852C88.6905 80.6392 88.6538 83.2879 90.2915 85.1018L93.2461 88.3991ZM102.064 80.9697C102.064 80.9697 103.574 79.78 105.084 78.5928C105.841 77.9979 106.592 77.4007 107.16 76.9551C107.745 76.5365 108.137 76.2575 108.137 76.2575L105.503 72.6982C104.778 71.7166 103.757 71.0801 102.69 70.8598C101.645 70.664 100.558 70.8916 99.6866 71.5771C97.9412 72.9528 97.765 75.6088 99.2974 77.5108L102.064 80.9697ZM111.273 74.0348C111.273 74.0348 112.837 72.9185 114.401 71.8023C115.17 71.227 115.992 70.7276 116.599 70.3384C117.206 69.9516 117.61 69.6922 117.61 69.6922L115.184 65.9909C114.514 64.9701 113.534 64.2823 112.484 64.0032C111.437 63.729 110.296 63.8319 109.41 64.4952C107.601 65.7853 107.285 68.4413 108.707 70.4265L111.273 74.0348ZM120.846 67.6188C120.846 67.6188 121.248 67.3593 121.855 66.9701C122.469 66.5956 123.248 66.0276 124.095 65.5699C125.759 64.6152 127.426 63.6605 127.426 63.6605L125.213 59.8295C123.999 57.7072 121.451 56.8871 119.522 57.9911C117.615 59.1319 117.189 61.8246 118.489 63.8735L120.846 67.6188ZM163.563 10.2102L165.984 18.7241L168.407 27.2355L170.828 35.7494L173.251 44.2608C173.251 44.2608 175.097 43.7345 176.943 43.2082C177.403 43.0784 177.863 42.9364 178.299 42.8263C178.737 42.7259 179.146 42.6329 179.496 42.5521C180.199 42.393 180.666 42.2853 180.666 42.2853L178.568 33.6882L176.47 25.0887L174.375 16.4916L172.277 7.89206L171.227 3.59352C170.938 2.40628 170.174 1.44669 169.158 0.861642C168.652 0.567893 168.081 0.367164 167.482 0.27659C166.884 0.188465 166.265 0.252111 165.641 0.423465C163.146 1.12847 161.673 3.60576 162.351 5.95331L163.563 10.2102ZM153.563 22.6334L156.466 30.9955L159.369 39.3551L162.275 47.7148C162.275 47.7148 164.091 47.1003 165.908 46.4859C166.816 46.175 167.724 45.8666 168.404 45.634C169.097 45.4358 169.557 45.3036 169.557 45.3036L166.972 36.8387L164.39 28.3738L160.512 15.6764C160.157 14.5063 159.355 13.581 158.336 13.0449C157.33 12.5382 156.111 12.428 154.929 12.8271C152.562 13.6275 151.298 16.1464 152.109 18.4524L153.563 22.6334ZM178.605 15.5149L182.473 32.7874L184.404 41.4261C184.404 41.4261 186.274 40.9928 188.145 40.5595C190.034 40.2266 191.924 39.8937 191.924 39.8937L190.321 31.1913L188.715 22.4865L187.111 13.7817L186.309 9.42935C185.875 7.0255 183.528 5.4319 181.068 5.87253C178.629 6.41841 177.097 8.81737 177.638 11.1967L178.605 15.5149ZM454.414 192.644L445.749 194.458L437.085 196.271L428.42 198.085C428.42 198.085 428.447 198.203 428.496 198.409C428.537 198.614 428.625 198.901 428.679 199.258C428.804 199.965 428.971 200.91 429.137 201.855C429.475 203.745 429.81 205.635 429.81 205.635L438.539 204.151L455.993 201.18L460.355 200.438C462.767 200.036 464.367 197.716 463.927 195.256C463.707 194.029 463.024 193.016 462.096 192.377C461.148 191.74 459.939 191.486 458.747 191.735L454.414 192.644ZM144.755 35.414L148.131 43.5949L151.507 51.7783L158.645 48.9583L152.52 32.3516L150.99 28.2C150.15 25.9038 147.658 24.7582 145.419 25.6419C143.181 26.5232 142.129 29.069 143.069 31.3235L144.755 35.414ZM192.827 21.7522L195.706 39.2156C195.706 39.2156 196.179 39.1324 196.886 39.0026C197.241 38.939 197.652 38.8655 198.098 38.7872C198.543 38.7309 199.021 38.6722 199.498 38.6134C201.402 38.3735 203.309 38.1336 203.309 38.1336L201.092 20.5723L200.538 16.1807C200.24 13.7548 198.063 12.0364 195.674 12.3375C195.079 12.4134 194.531 12.6067 194.051 12.8956C193.574 13.2089 193.165 13.6104 192.844 14.0755C192.201 15.0033 191.907 16.1807 192.108 17.3851L192.827 21.7522ZM338.018 47.4112L333.654 55.1124L329.291 62.8135C329.291 62.8135 330.956 63.7682 332.623 64.7253C333.453 65.2076 334.297 65.6653 334.907 66.0472C335.514 66.4389 335.918 66.6984 335.918 66.6984L340.569 59.1686L345.22 51.6363L347.546 47.8714C348.187 46.8311 348.366 45.6316 348.126 44.5251C347.883 43.4211 347.183 42.4787 346.145 41.874C344.06 40.6746 341.396 41.431 340.199 43.5607L338.018 47.4112ZM442.809 182.291L434.261 184.595L425.712 186.901C425.712 186.901 425.845 187.361 426.043 188.054C426.141 188.399 426.256 188.803 426.378 189.236C426.479 189.674 426.586 190.142 426.692 190.609C427.12 192.48 427.551 194.35 427.551 194.35L436.18 192.372L444.806 190.392L449.122 189.403C451.506 188.864 453.002 186.529 452.461 184.184C452.326 183.599 452.076 183.072 451.744 182.624C451.386 182.181 450.943 181.814 450.449 181.54C449.462 180.994 448.263 180.82 447.083 181.138L442.809 182.291ZM447.981 206.778L430.474 209.417L431.436 217.037L453.43 214.565C455.858 214.3 457.582 212.151 457.281 209.764C456.977 207.378 454.772 205.745 452.358 206.117L447.981 206.778ZM137.14 48.4589L140.976 56.4342L147.974 53.2789L142.679 41.1029C141.712 38.8582 139.22 37.8129 137.11 38.7652C135.003 39.7174 134.156 42.2706 135.223 44.4688L137.14 48.4589ZM206.178 28.8438L207.121 37.644C207.121 37.644 207.598 37.5828 208.31 37.4923C209.03 37.4409 209.99 37.3699 210.949 37.2989C212.866 37.1545 214.785 37.01 214.785 37.01L214.173 28.1804L213.867 23.7668C213.706 21.3262 211.703 19.4927 209.395 19.6665C208.244 19.7547 207.248 20.325 206.58 21.1769C205.914 22.0704 205.576 23.2283 205.706 24.4449L206.178 28.8438ZM277.895 33.2892L275.871 41.9059C275.871 41.9059 277.741 42.3342 279.611 42.7626C280.546 42.9805 281.459 43.2791 282.154 43.4652C282.845 43.6635 283.307 43.7957 283.307 43.7957L286.832 30.9955C287.486 28.6528 286.225 26.1976 283.988 25.6101C281.733 25.0911 279.459 26.6015 278.906 28.9833L277.895 33.2892ZM323.042 49.4699L319.12 57.4061L325.957 60.9017L330.175 53.1198L332.285 49.23C333.455 47.0832 332.736 44.4933 330.674 43.4383C328.616 42.3832 326.075 43.3061 325 45.5019L323.042 49.4699ZM343.94 61.335L339.149 68.7766C339.149 68.7766 340.767 69.8097 342.388 70.8427C343.208 71.3421 343.962 71.9442 344.557 72.3506C345.142 72.7692 345.533 73.0483 345.533 73.0483L350.603 65.7926L353.137 62.1648C354.534 60.1796 354.177 57.4257 352.25 56.1429C350.299 54.897 347.653 55.553 346.336 57.6141L343.94 61.335ZM396.94 109.816L389.951 115.25C389.951 115.25 391.14 116.758 392.333 118.266C393.444 119.835 394.553 121.402 394.553 121.402L401.74 116.237L405.336 113.654C407.326 112.235 407.852 109.554 406.513 107.667C405.081 105.848 402.359 105.593 400.435 107.101L396.94 109.816ZM404.065 119.505L396.783 124.533C396.783 124.533 397.062 124.925 397.481 125.51C397.919 126.085 398.425 126.9 398.942 127.71C399.977 129.328 401.01 130.946 401.01 130.946L408.479 126.195L412.215 123.818C414.281 122.513 414.944 119.877 413.696 117.926C413.079 116.952 412.104 116.349 410.991 116.2C409.892 116.041 408.714 116.293 407.708 116.988L404.065 119.505ZM410.648 129.566L403.091 134.175C403.091 134.175 403.157 134.278 403.27 134.454C403.375 134.635 403.524 134.895 403.706 135.208C404.063 135.832 404.54 136.665 405.018 137.499C405.975 139.164 406.932 140.829 406.932 140.829L418.52 134.344C420.657 133.159 421.453 130.572 420.3 128.565C419.145 126.56 416.538 125.962 414.427 127.26L410.648 129.566ZM430.787 173.1L422.386 175.888C422.386 175.888 423.005 177.704 423.624 179.518C424.143 181.366 424.665 183.212 424.665 183.212L433.166 180.744L437.416 179.511C439.766 178.84 441.161 176.49 440.532 174.262C439.788 172.074 437.306 170.928 434.99 171.707L430.787 173.1ZM440.652 220.036L431.84 220.858L432.425 228.528L441.264 228.033L445.682 227.788C448.123 227.661 449.957 225.686 449.783 223.377C449.607 221.069 447.494 219.387 445.061 219.625L440.652 220.036ZM130.756 61.7438C130.756 61.7438 131.169 61.5039 131.793 61.1416C132.42 60.7891 133.287 60.3754 134.139 59.9323C135.85 59.0584 137.558 58.1845 137.558 58.1845L135.566 54.2336C134.471 52.0476 131.984 51.0953 130.004 52.1063C129.022 52.6179 128.349 53.4845 128.109 54.5494C127.869 55.6117 128.021 56.8014 128.614 57.8712L130.756 61.7438ZM218.619 36.7089L226.317 36.5229L226.259 32.0995C226.234 29.654 224.41 27.7226 222.185 27.7765C219.96 27.8303 218.264 29.8499 218.393 32.2904L218.619 36.7089ZM230.168 36.4764L237.869 36.6722L238.055 32.2513C238.168 29.8083 236.454 27.7887 234.229 27.7324C232.004 27.6737 230.195 29.6051 230.19 32.0505L230.168 36.4764ZM241.71 36.8778L249.382 37.4555L249.815 33.0517C250.065 30.621 248.469 28.5182 246.251 28.3493C244.033 28.1828 242.121 30.0212 241.982 32.4594L241.71 36.8778ZM253.195 37.9182C253.195 37.9182 255.102 38.1605 257.007 38.4029C257.959 38.5204 258.914 38.6403 259.629 38.7285C259.986 38.7701 260.285 38.8117 260.49 38.8558C260.696 38.8925 260.813 38.9145 260.813 38.9145L261.496 34.5425C261.685 33.3455 261.428 32.1362 260.828 31.2672C260.233 30.386 259.308 29.7715 258.209 29.6345C256.003 29.3554 253.991 31.0959 253.714 33.5242L253.195 37.9182ZM264.593 39.595C264.593 39.595 266.483 39.9304 268.373 40.2658C269.317 40.4371 270.267 40.5815 270.962 40.7676C271.665 40.9316 272.13 41.0393 272.13 41.0393L273.06 36.7138C273.579 34.3467 272.265 31.9208 270.069 31.5805C267.88 31.1938 265.773 32.8265 265.357 35.2353L264.593 39.595ZM286.999 44.8434C286.999 44.8434 287.459 44.9731 288.152 45.1665C288.844 45.3623 289.772 45.6047 290.673 45.9376C292.492 46.5545 294.306 47.1713 294.306 47.1713L295.723 42.9805C296.514 40.6672 295.449 38.2144 293.346 37.4996C292.308 37.1202 291.187 37.3503 290.264 37.9158C289.339 38.4861 288.6 39.4261 288.252 40.5987L286.999 44.8434ZM297.943 48.3977C297.943 48.3977 298.399 48.5495 299.082 48.7772C299.75 49.0415 300.643 49.3965 301.534 49.749C303.319 50.454 305.104 51.1565 305.104 51.1565L306.758 47.0538C307.679 44.7895 306.749 42.2951 304.685 41.4775C303.654 41.0736 302.553 41.1592 301.603 41.6586C300.646 42.1825 299.853 43.0833 299.439 44.2314L297.943 48.3977ZM308.67 52.5739L315.664 55.739L317.549 51.7342C318.596 49.5262 317.806 46.9975 315.781 46.082C313.757 45.1665 311.351 46.2485 310.403 48.5005L308.67 52.5739ZM348.667 75.2734C348.667 75.2734 349.058 75.5525 349.646 75.9686C350.233 76.3848 351.029 76.9258 351.771 77.5377C353.281 78.7274 354.789 79.9171 354.789 79.9171L357.526 76.4386C359.043 74.5219 358.855 71.8561 357.11 70.4779C356.253 69.7729 355.122 69.6138 354.062 69.839C352.997 70.0667 351.986 70.7056 351.269 71.6946L348.667 75.2734ZM357.817 82.2891C357.817 82.2891 358.201 82.578 358.757 83.0333C359.303 83.5082 360.027 84.1398 360.752 84.7689C362.204 86.0296 363.658 87.2878 363.658 87.2878L366.585 83.966C368.206 82.1398 368.159 79.4789 366.48 78.0224C365.643 77.2954 364.566 77.0163 363.513 77.1608C362.439 77.3272 361.388 77.9172 360.617 78.8621L357.817 82.2891ZM366.544 89.8238L372.11 95.1309L375.219 91.9804C376.94 90.2473 377.031 87.6011 375.422 86.0663C373.812 84.5339 371.178 84.7517 369.533 86.5608L366.544 89.8238ZM374.808 97.8701C374.808 97.8701 376.135 99.2606 377.461 100.653C378.125 101.346 378.791 102.041 379.29 102.563C379.54 102.822 379.745 103.04 379.892 103.192C380.029 103.351 380.108 103.442 380.108 103.442L383.388 100.472C385.229 98.815 385.444 96.2007 383.912 94.5899C382.374 92.9816 379.721 93.0649 377.976 94.7784L374.808 97.8701ZM382.619 106.352C382.619 106.352 383.88 107.804 385.138 109.255C385.772 109.98 386.409 110.7 386.837 111.28C387.283 111.848 387.579 112.225 387.579 112.225L391.021 109.444C391.97 108.675 392.56 107.635 392.734 106.558C392.925 105.471 392.651 104.396 391.919 103.566C390.46 101.887 387.792 101.831 385.956 103.444L382.619 106.352ZM408.795 144.185L412.295 151.017L416.276 149.078C418.476 148.016 419.436 145.553 418.422 143.578C417.411 141.6 414.849 140.936 412.697 142.097L408.795 144.185ZM413.913 154.498C413.913 154.498 414.702 156.246 415.492 157.996C415.891 158.87 416.288 159.741 416.587 160.397C416.741 160.72 416.853 160.999 416.927 161.198C417.003 161.391 417.047 161.504 417.047 161.504L421.13 159.795C422.249 159.328 423.137 158.478 423.57 157.509C424.009 156.542 424.05 155.43 423.592 154.424C422.675 152.4 420.141 151.599 417.926 152.637L413.913 154.498ZM418.447 165.075C418.447 165.075 419.154 166.86 419.859 168.644C420.038 169.09 420.214 169.535 420.381 169.951C420.535 170.375 420.66 170.776 420.777 171.117C421.005 171.797 421.157 172.253 421.157 172.253L425.331 170.779C426.483 170.37 427.387 169.584 427.911 168.632C428.173 168.155 428.344 167.636 428.398 167.107C428.432 166.583 428.354 166.052 428.151 165.538C427.33 163.472 424.831 162.534 422.562 163.442L418.447 165.075ZM436.992 232.209L432.569 232.373L432.772 240.07H437.198C439.643 240.079 441.575 238.283 441.516 236.057C441.46 233.832 439.435 232.109 436.992 232.209Z" fill="#BA8E5C"/>
</g>
</svg>
