<svg width="150" height="150" viewBox="0 0 150 150" fill="none" xmlns="http://www.w3.org/2000/svg">
<circle cx="75" cy="75" r="70" fill="#FEDFB2" stroke="white" stroke-width="10"/>
<path fill-rule="evenodd" clip-rule="evenodd" d="M117 58.5563C117 51.0693 110.843 45 103.248 45C88.5106 45 62.4912 45 47.7526 45C40.1586 45 34 51.0693 34 58.5563C34 68.0931 34 81.9077 34 91.4429C34 98.9316 40.1586 105 47.7526 105C62.4912 105 88.5106 105 103.248 105C110.843 105 117 98.9316 117 91.4429V58.5563ZM86.7331 76.5862L77.3868 85.1768C76.3245 86.153 74.6764 86.153 73.6141 85.1768L64.9117 77.1791L44.4486 98.8648C45.4596 99.302 46.5775 99.545 47.7526 99.545H103.248C104.446 99.545 105.583 99.2926 106.61 98.84L86.7331 76.5862ZM40.4996 54.7422L60.8639 73.4591L40.4267 95.1184C39.8557 94.0155 39.5337 92.7664 39.5337 91.4446C39.5337 91.4429 39.5337 58.5563 39.5337 58.5563C39.5337 57.1771 39.8834 55.8784 40.4996 54.7422ZM110.502 54.7422C111.118 55.8784 111.467 57.1771 111.467 58.5563V91.4429C111.467 92.7433 111.156 93.9702 110.605 95.0593L90.7827 72.8654L110.502 54.7422ZM106.387 51.0667L75.5 79.4532L44.6135 51.0667C45.582 50.6723 46.6417 50.4542 47.7526 50.4542H103.248C104.36 50.4542 105.421 50.6723 106.387 51.0667Z" fill="#BA8E5C"/>
</svg>
