<svg width="368" height="431" viewBox="0 0 368 431" fill="none" xmlns="http://www.w3.org/2000/svg">
<circle cx="184" cy="184" r="184" fill="white"/>
<circle cx="183.295" cy="184" r="162.146" fill="#FEDFB2"/>
<g clip-path="url(#clip0_14_337)">
<mask id="mask0_14_337" style="mask-type:luminance" maskUnits="userSpaceOnUse" x="48" y="46" width="272" height="203">
<path d="M48.3025 46.2192H319.377V248.529H48.3025V46.2192Z" fill="white"/>
</mask>
<g mask="url(#mask0_14_337)">
<path d="M303.483 194.595C300.458 197.226 297.213 199.589 293.766 201.603C290.318 203.618 286.684 205.307 282.944 206.671C275.468 209.404 267.578 211.093 259.538 211.317C251.757 211.573 243.904 210.492 236.18 208.296C235.543 207.711 234.914 207.122 234.288 206.517C231.677 204.028 229.115 201.445 226.321 199.037C223.527 196.645 220.47 194.444 217.059 192.812C215.771 192.195 214.439 191.647 213.083 191.18C214.326 191.009 215.564 190.806 216.795 190.57C222.09 189.551 227.255 187.903 232.242 185.864C237.228 183.83 242.036 181.377 246.617 178.579C248.919 177.174 251.12 175.72 253.357 174.12C253.674 173.885 253.983 173.641 254.295 173.398C257.962 172.866 261.67 172.922 265.345 173.276C271.115 173.869 276.853 175.14 282.652 176.407C288.454 177.661 294.424 178.681 300.523 179.018C303.564 179.18 306.638 179.18 309.688 178.79C312.08 178.482 314.48 177.889 316.693 176.845C315.45 180.045 313.761 183.062 311.726 185.799C309.339 189.072 306.492 191.959 303.483 194.595ZM250.21 221.404C252.281 222.736 254.494 223.929 256.825 224.871C253.597 227.304 250.194 229.424 246.584 230.894C241.955 232.757 237.066 233.578 232.339 232.705C227.612 231.868 223.15 229.334 219.434 225.846C218.5 224.981 217.611 224.055 216.774 223.068C215.926 222.098 215.122 221.075 214.387 219.999C213.676 218.971 213.002 217.899 212.405 216.791C212.588 216.06 212.746 215.321 212.852 214.573C212.998 213.68 213.051 212.539 212.957 211.552C212.778 209.514 212.1 207.565 211.114 205.916C210.127 204.255 208.868 202.866 207.504 201.689C206.159 200.491 204.669 199.524 203.163 198.672C200.117 196.986 196.905 195.845 193.685 194.915C190.798 194.136 187.89 193.482 184.93 193.226C188.414 192.771 191.849 192.43 195.252 192.398C198.757 192.357 202.212 192.666 205.559 193.376C208.905 194.083 212.125 195.216 215.223 196.682C218.321 198.132 221.367 199.813 224.368 201.693C227.373 203.557 230.305 205.632 233.139 207.845C235.982 210.054 238.678 212.458 241.472 214.764C244.245 217.099 247.1 219.381 250.21 221.404ZM207.902 213.782C207.78 214.496 207.609 215.195 207.398 215.885C206.578 218.663 205.087 221.274 203.26 223.73C201.417 226.187 199.199 228.453 196.84 230.634C194.473 232.81 191.939 234.873 189.45 237.098C188.203 238.215 186.96 239.364 185.787 240.643C185.052 241.46 184.321 242.316 183.675 243.287C182.952 242.487 182.173 241.805 181.409 241.123C180.11 240.03 178.786 239.019 177.47 238.012C174.843 236.002 172.22 234.012 169.816 231.795C167.408 229.586 165.231 227.133 163.473 224.474C161.723 221.814 160.403 218.959 159.745 216.043C159.66 215.682 159.591 215.317 159.522 214.951C159.469 214.606 159.408 214.273 159.351 213.838C159.274 213.16 159.242 212.515 159.299 211.857C159.412 210.553 159.802 209.266 160.444 208.028C161.727 205.542 163.847 203.24 166.267 201.23C168.695 199.216 171.452 197.433 174.425 196.101C177.385 194.757 180.577 193.799 183.842 193.628C187.094 193.823 190.286 194.79 193.242 196.138C196.211 197.474 198.96 199.256 201.376 201.283C203.78 203.301 205.867 205.636 207.061 208.121C207.662 209.355 208.007 210.622 208.056 211.877C208.076 212.539 208.023 213.055 207.902 213.782ZM156.74 206.009C155.794 207.654 155.157 209.583 155.047 211.573C154.986 212.559 155.063 213.575 155.254 214.517C155.323 214.898 155.429 215.373 155.538 215.836C155.567 215.93 155.595 216.019 155.624 216.112C154.946 217.469 154.15 218.76 153.293 219.999C152.558 221.075 151.754 222.098 150.905 223.068C150.073 224.055 149.179 224.981 148.245 225.846C144.53 229.334 140.067 231.868 135.34 232.705C130.614 233.578 125.724 232.757 121.095 230.894C117.485 229.424 114.078 227.304 110.85 224.867C113.132 223.942 115.296 222.776 117.319 221.469C120.381 219.463 123.182 217.205 125.895 214.878C128.632 212.584 131.259 210.192 134.033 207.987C136.802 205.778 139.669 203.703 142.613 201.843C145.545 199.975 148.53 198.31 151.571 196.877C154.608 195.439 157.776 194.335 161.073 193.657C164.362 192.978 167.765 192.694 171.221 192.747C174.336 192.796 177.483 193.096 180.67 193.494C178.429 193.831 176.212 194.355 174.011 194.952C170.795 195.886 167.583 197.027 164.557 198.724C161.569 200.434 158.649 202.684 156.74 206.009ZM109.124 210.44C101.023 210.293 93.0477 208.742 85.4542 206.16C81.6533 204.872 77.958 203.26 74.4374 201.323C70.9167 199.378 67.5991 197.08 64.4967 194.509C61.4065 191.927 58.4909 189.08 56.0463 185.819C54.8078 184.203 53.7114 182.477 52.7368 180.683C52.0912 179.432 51.4902 178.149 50.9785 176.837C53.1916 177.889 55.5956 178.486 57.9873 178.798C61.041 179.196 64.115 179.196 67.1605 179.03C73.2598 178.697 79.229 177.665 85.0278 176.407C90.8265 175.14 96.5603 173.869 102.335 173.272C106.018 172.914 109.733 172.862 113.404 173.402C113.989 173.852 114.582 174.291 115.195 174.709C117.404 176.248 119.706 177.759 122.045 179.135C126.74 181.913 131.673 184.297 136.778 186.246C141.878 188.191 147.149 189.734 152.521 190.672C153.277 190.802 154.036 190.924 154.799 191.033C153.057 191.565 151.36 192.227 149.727 193.011C146.361 194.627 143.356 196.82 140.631 199.212C137.903 201.612 135.409 204.186 132.871 206.671C132.607 206.931 132.335 207.183 132.067 207.443C124.482 209.554 116.775 210.61 109.124 210.44ZM78.8514 166.45C76.3094 163.433 74.4577 159.888 73.0161 156.176C71.5705 152.469 70.4782 148.534 70.0843 144.489C69.7432 141.099 69.532 137.566 70.1492 134.13C71.8872 136.534 73.8851 138.727 76.0536 140.778C78.7458 143.312 81.7467 145.602 84.8775 147.324C88.0205 149.041 91.1838 150.434 94.1198 152.164C95.9511 153.204 97.6851 154.385 99.3784 155.693C101.701 160.635 104.832 165.268 108.747 169.239C109.209 169.715 109.68 170.177 110.164 170.628C109.047 170.413 107.922 170.226 106.789 170.1C105.25 169.95 103.707 169.893 102.168 169.889C96.544 169.897 91.0417 170.799 85.6734 171.899C82.9771 170.527 80.7072 168.659 78.8514 166.45ZM82.4005 120.291C82.234 117.753 82.2502 115.191 82.3233 112.608C82.3802 110.03 82.4208 107.415 82.6238 104.804C82.9324 100.39 83.8745 95.9838 85.645 91.9352C86.6602 93.6204 87.8987 95.1594 89.3281 96.4873C91.3057 98.3309 93.6447 99.7318 96.1095 100.804C98.5784 101.868 101.23 102.566 103.93 102.725C105.636 102.822 107.378 102.684 109.019 102.262C108.807 104.727 108.755 107.212 108.889 109.693C109.124 113.871 109.896 118.074 111.406 121.956C105.872 117.847 100.897 113.043 97.2465 107.476L95.2852 104.487L93.8111 107.52C92.4792 110.249 91.931 113.071 91.6671 115.845C91.4194 118.626 91.4559 121.38 91.6468 124.096C92.0407 129.525 92.8569 134.861 94.1076 140.128C94.9035 143.446 95.8456 146.751 97.0191 149.992C96.7349 149.736 96.4466 149.488 96.1501 149.248C93.937 147.47 91.5412 145.996 89.121 144.725C87.1637 141.679 85.714 138.471 84.7516 135.105C84.0451 132.725 83.5618 130.281 83.2004 127.812C82.835 125.339 82.5629 122.833 82.4005 120.291ZM113.12 109.737C113.526 104.625 114.432 99.5775 115.386 94.5016C115.873 91.9677 116.413 89.4257 117.051 86.8999C117.705 84.3782 118.37 81.8443 119.004 79.286C119.654 76.7318 120.316 74.1654 121.148 71.6518C121.822 69.6215 122.594 67.6317 123.463 65.6785C124.807 68.1677 126.252 70.6204 127.933 72.931C129.891 75.6679 132.234 78.1043 134.861 80.1509C137.472 82.2219 140.254 84.0574 143.194 85.6167C144.664 86.3882 146.174 87.0948 147.73 87.6917C148.525 87.9922 149.33 88.2765 150.15 88.5201C149.76 89.1698 149.394 89.8317 149.049 90.5058C148.331 91.8905 147.742 93.3483 147.263 94.8386C146.771 96.3208 146.434 97.8598 146.264 99.411C146.012 101.482 146.069 103.569 146.41 105.583C145.451 104.836 144.53 104.065 143.657 103.244C141.85 101.588 140.25 99.7684 138.942 97.7948L136.534 94.1645L135.125 98.3024C134.317 100.678 133.574 103.139 132.993 105.628C132.421 108.125 131.966 110.651 131.625 113.189C130.947 118.265 130.557 123.337 130.301 128.405C130.098 133.477 130.114 138.581 130.691 143.71C130.991 146.268 131.434 148.83 132.096 151.348C132.75 153.865 133.639 156.33 134.707 158.722C136.847 163.502 139.693 167.985 143.104 171.976C146.528 175.964 150.552 179.383 154.881 182.254C159.226 185.105 163.83 187.476 168.606 189.348C168.971 189.494 169.341 189.632 169.706 189.77C166.945 189.438 164.131 189.401 161.313 189.701C153.411 188.02 145.833 185.3 138.556 181.994C133.797 179.805 129.164 177.353 124.628 174.725C122.35 173.406 120.125 172.07 117.879 170.644C115.776 169.3 113.757 167.737 111.89 166.011C108.162 162.547 104.982 158.442 102.205 154.032C99.4515 149.606 97.1734 144.786 95.6831 139.71C94.1969 134.642 93.3726 129.331 93.5716 124.064C93.6771 121.432 93.9979 118.821 94.5949 116.32C94.9075 115.037 95.2811 113.774 95.74 112.576C97.21 114.7 98.9114 116.641 100.751 118.395C103.451 120.99 106.424 123.248 109.555 125.209C111.114 126.196 112.734 127.085 114.375 127.917C116.011 128.758 117.692 129.509 119.402 130.171C122.813 131.507 126.366 132.547 129.988 132.977L130.11 132.514C126.76 131.186 123.576 129.607 120.494 127.873C118.955 126.996 117.453 126.078 115.967 125.132C115.045 124.535 114.135 123.909 113.238 123.276C112.767 118.683 112.75 114.196 113.12 109.737ZM157.427 85.6126C159.331 83.4808 161.325 81.3895 163.307 79.2413C167.27 74.937 171.225 70.4377 175.209 66.0196C177.194 63.7943 179.16 61.5447 180.942 59.1163C182.01 57.6423 183.025 56.1114 183.923 54.483C184.573 56.3185 185.405 58.089 186.388 59.7458C187.951 62.4055 189.843 64.8136 191.817 67.0916C195.776 71.6356 200.06 75.7166 204.227 79.7246C208.393 83.7285 212.433 87.7526 215.471 92.4225C216.21 93.6001 216.912 94.798 217.505 96.0528C218.09 97.3116 218.602 98.607 219 99.9511C219.625 102.055 219.958 104.268 220.059 106.538C219.609 106.867 219.15 107.187 218.691 107.508C217.655 108.223 216.579 108.893 215.495 109.555C214.415 110.229 213.306 110.87 212.186 111.492C210.586 112.426 208.933 113.278 207.296 114.192C205.53 111.65 203.67 109.21 201.81 106.818C198.347 102.355 194.903 97.9938 191.955 93.3565C189.015 88.7313 186.562 83.8015 185.109 78.4982L183.626 73.1015L182.571 78.4982C181.519 83.8868 179.468 89.1049 176.67 93.9209C173.897 98.7654 170.506 103.252 167.055 107.707C165.321 109.928 163.575 112.158 161.906 114.46C161.792 114.61 161.686 114.769 161.573 114.923C159.713 113.863 157.833 112.901 156.022 111.841C154.897 111.224 153.792 110.578 152.708 109.908C151.624 109.242 150.548 108.576 149.512 107.857C148.883 107.419 148.262 106.972 147.648 106.517C147.774 104.235 148.123 102.022 148.749 99.9105C149.155 98.5623 149.667 97.2588 150.247 95.9959C150.836 94.733 151.539 93.5229 152.278 92.3372C153.776 89.9739 155.538 87.7608 157.427 85.6126ZM219.95 87.6917C221.505 87.0948 223.012 86.3882 224.486 85.6167C227.426 84.0574 230.207 82.2219 232.818 80.1509C235.445 78.1043 237.789 75.6679 239.746 72.931C241.427 70.6204 242.877 68.1677 244.217 65.6785C245.086 67.6317 245.861 69.6215 246.531 71.6518C247.36 74.1654 248.026 76.7318 248.675 79.286C249.313 81.8443 249.975 84.3782 250.625 86.8999C251.266 89.4257 251.806 91.9677 252.298 94.5016C253.248 99.5775 254.153 104.625 254.559 109.737C254.929 114.192 254.913 118.671 254.442 123.264C253.54 123.897 252.635 124.527 251.709 125.124C250.223 126.07 248.72 126.987 247.181 127.869C244.119 129.586 240.96 131.162 237.634 132.49C237.638 131.052 237.622 129.615 237.586 128.177C237.407 123.097 237.086 118.013 236.469 112.913C235.868 107.825 234.743 102.749 233.078 97.9573L231.649 93.8437L229.265 97.4456C227.958 99.4151 226.354 101.238 224.551 102.895C223.503 103.874 222.378 104.791 221.221 105.669C221.554 103.65 221.619 101.563 221.383 99.48C221.062 96.4061 220.092 93.3849 218.736 90.6033C218.39 89.8886 218.017 89.1861 217.623 88.4958C218.411 88.2562 219.182 87.98 219.95 87.6917ZM263.749 102.725C266.449 102.566 269.101 101.868 271.57 100.804C274.035 99.7318 276.374 98.3309 278.355 96.4873C279.777 95.1594 281.019 93.6204 282.03 91.9352C283.805 95.9838 284.747 100.39 285.055 104.804C285.259 107.415 285.295 110.03 285.356 112.608C285.429 115.191 285.445 117.753 285.279 120.291C285.12 122.833 284.844 125.339 284.479 127.812C284.117 130.281 283.634 132.725 282.928 135.105C281.965 138.471 280.516 141.679 278.558 144.725C276.138 145.996 273.746 147.47 271.529 149.248C271.257 149.468 270.997 149.699 270.737 149.927C271.943 146.572 272.898 143.145 273.689 139.702C274.887 134.5 275.655 129.225 276.016 123.869C276.191 121.189 276.215 118.48 275.968 115.739C275.7 113.002 275.155 110.221 273.852 107.528L272.398 104.515L270.453 107.484C268.597 110.31 266.376 112.917 263.952 115.366C261.589 117.729 259.006 119.914 256.281 121.94C257.788 118.062 258.555 113.867 258.791 109.693C258.925 107.212 258.872 104.727 258.661 102.262C260.301 102.684 262.043 102.822 263.749 102.725ZM184.569 193.149L184.585 193.206C184.508 193.198 184.426 193.194 184.349 193.19C184.422 193.173 184.495 193.161 184.569 193.149ZM181.856 193.332C181.836 193.336 181.811 193.34 181.783 193.34L181.791 193.32C181.815 193.324 181.836 193.328 181.856 193.332ZM220.417 110.383C222.796 109.149 225.07 107.666 227.194 105.933C228.274 105.039 229.306 104.073 230.272 103.029C231.462 106.501 232.664 109.945 233.703 113.481C235.104 118.261 236.055 123.219 236.148 128.218C236.29 133.213 235.665 138.215 234.345 142.983C233.037 147.754 231.157 152.29 228.883 156.566C226.589 160.834 223.726 164.764 220.433 168.297C217.16 171.846 213.534 175.087 209.631 178.027C205.741 180.987 201.546 183.606 197.214 186.039C196.885 186.217 196.548 186.392 196.219 186.575C196.97 185.957 197.709 185.332 198.436 184.682C202.647 180.837 206.423 176.447 209.501 171.538C212.567 166.628 214.939 161.195 216.25 155.457C217.558 149.715 217.883 143.746 217.14 137.846C216.393 131.942 214.403 126.187 211.564 121.055C210.448 119 209.221 117.035 207.934 115.13C209.672 114.659 211.402 114.147 213.116 113.555C214.358 113.108 215.589 112.629 216.811 112.113C218.033 111.589 219.231 111.004 220.417 110.383ZM183.663 83.5173C184.869 87.6268 186.575 91.6022 188.674 95.3137C191.492 100.369 194.915 104.974 198.209 109.518C201.502 114.062 204.706 118.574 207.171 123.382C209.64 128.181 211.378 133.245 212.1 138.524C212.848 143.795 212.685 149.236 211.731 154.531C211.256 157.183 210.606 159.814 209.774 162.401C208.921 164.98 207.926 167.534 206.732 170.007C204.357 174.953 201.311 179.671 197.522 183.761C195.841 185.6 193.989 187.293 192 188.792C189.307 190.164 186.579 191.484 183.813 192.792C182.514 192.585 181.275 192.142 180.081 191.569C179.988 191.525 179.899 191.48 179.809 191.435C178.611 190.838 177.462 190.112 176.37 189.348C174.096 187.728 172.009 185.844 170.129 183.789C166.336 179.7 163.286 174.977 160.89 170.039C156.131 160.139 153.914 149.216 155.023 138.447C155.571 133.087 157.098 127.816 159.473 122.833C160.643 120.336 162.036 117.928 163.518 115.561C165.024 113.205 166.636 110.911 168.285 108.629C171.595 104.077 175.071 99.5978 178.059 94.7493C179.554 92.3291 180.93 89.8155 182.136 87.2085C182.68 85.9984 183.192 84.768 183.663 83.5173ZM137.923 103.366C138.889 104.414 139.929 105.388 141.009 106.282C143.137 108.016 145.407 109.498 147.786 110.732C148.976 111.35 150.17 111.938 151.392 112.462C152.615 112.982 153.849 113.457 155.088 113.908C157.053 114.582 159.035 115.163 161.024 115.682C159.66 117.591 158.357 119.56 157.15 121.603C155.689 124.084 154.405 126.703 153.366 129.432C152.334 132.169 151.563 135.016 151.096 137.919C150.174 143.726 150.369 149.687 151.62 155.417C152.854 161.15 155.185 166.596 158.235 171.505C161.292 176.419 165.069 180.808 169.272 184.654C170.835 186.055 172.451 187.387 174.149 188.609C172.752 187.886 171.367 187.155 170.003 186.392C165.678 183.964 161.495 181.349 157.626 178.38C153.739 175.432 150.138 172.187 146.897 168.626C143.64 165.085 140.818 161.134 138.581 156.85C136.364 152.562 134.548 148.01 133.314 143.226C132.071 138.455 131.519 133.444 131.742 128.466C131.909 123.479 132.924 118.541 134.386 113.79C135.466 110.261 136.705 106.834 137.923 103.366ZM206.229 189.523C203.386 189.125 200.539 189.076 197.733 189.328C198.026 189.214 198.318 189.109 198.607 188.995C203.386 187.119 208.007 184.755 212.364 181.909C216.705 179.046 220.75 175.639 224.205 171.676C227.645 167.7 230.536 163.242 232.737 158.487C233.829 156.103 234.755 153.646 235.445 151.133C236.144 148.619 236.619 146.061 236.964 143.502C237.423 139.909 237.606 136.323 237.63 132.746L237.687 132.977C241.313 132.551 244.866 131.515 248.281 130.179C249.995 129.517 251.672 128.766 253.309 127.925C254.953 127.097 256.569 126.204 258.129 125.217C261.256 123.252 264.232 120.998 266.928 118.399C268.78 116.633 270.486 114.675 271.956 112.539C271.964 112.568 271.98 112.596 271.992 112.629C272.435 113.774 272.796 114.98 273.097 116.21C273.698 118.679 274.014 121.254 274.132 123.849C274.339 129.042 273.543 134.285 272.098 139.287C270.644 144.302 268.435 149.07 265.763 153.459C263.071 157.841 259.993 161.93 256.375 165.426C254.563 167.16 252.61 168.736 250.555 170.125C248.44 171.505 246.186 172.878 243.973 174.206C239.527 176.865 235.007 179.391 230.361 181.661C223.158 185.153 215.645 188.053 207.747 189.77C207.244 189.681 206.74 189.596 206.229 189.523ZM291.626 140.778C293.794 138.727 295.792 136.538 297.53 134.13C298.147 137.566 297.936 141.099 297.595 144.489C297.201 148.534 296.113 152.469 294.663 156.176C293.222 159.888 291.37 163.433 288.832 166.45C286.972 168.659 284.702 170.527 282.006 171.899C276.638 170.795 271.135 169.893 265.511 169.889C263.972 169.893 262.429 169.95 260.89 170.1C259.773 170.222 258.661 170.405 257.556 170.62C258.251 169.962 258.933 169.292 259.587 168.598C263.229 164.748 266.173 160.33 268.386 155.624C270.055 154.349 271.761 153.187 273.555 152.164C276.495 150.434 279.659 149.041 282.802 147.324C285.933 145.602 288.934 143.312 291.626 140.778ZM317.651 174.636C315.28 176.224 312.417 177.004 309.53 177.182C306.634 177.365 303.711 177.004 300.836 176.451C295.788 175.44 290.822 173.909 285.726 172.707C287.849 171.928 289.839 170.73 291.581 169.26C295.163 166.271 297.77 162.275 299.43 158.028C301.071 153.752 301.749 149.2 301.782 144.692C301.778 140.169 300.616 135.686 298.793 131.645L297.956 129.793L297.173 131.519C295.739 134.662 293.368 137.391 290.395 139.182C288.296 140.477 286.006 141.375 283.711 142.329C285.043 140.579 286.164 138.658 287.066 136.648C288.211 134.082 289.015 131.373 289.51 128.636C290.001 125.895 290.148 123.122 290.083 120.377C290.006 117.636 289.79 114.915 289.372 112.235C288.938 109.555 288.231 106.931 287.468 104.353C285.88 99.1958 284.43 94.1645 283.196 88.8896L282.684 86.7009L281.072 88.6988C279.59 90.5302 277.669 91.9758 275.765 93.3402C273.848 94.6965 271.891 96.0122 269.811 97.1167C267.728 98.2212 265.552 99.1471 263.278 99.7968C261.735 100.239 260.151 100.54 258.502 100.678C258.218 98.2293 257.78 95.801 257.174 93.4255C256.521 90.786 255.704 88.1953 254.836 85.6451C253.975 83.0869 252.964 80.5895 251.802 78.1612C250.657 75.7288 249.402 73.3533 248.229 70.9574C247.055 68.5657 245.943 66.1536 244.956 63.6887L244.399 62.2959L243.612 63.6278C241.991 66.3648 239.697 68.6469 237.313 70.7219C234.909 72.797 232.485 74.7908 230.114 76.878C227.718 78.9327 225.249 80.9265 222.731 82.8879C220.815 84.3782 218.894 85.8563 216.896 87.2816C216.75 87.0461 216.616 86.8065 216.466 86.571C215.625 85.2878 214.728 84.0493 213.794 82.8513C211.93 80.4433 209.883 78.2343 207.8 76.1105C203.622 71.8711 199.134 68.1231 195.135 64.038C193.141 61.9954 191.269 59.8757 189.6 57.6301C187.947 55.3886 186.469 53.0171 185.503 50.402L183.964 46.2235L182.981 50.3695C182.331 53.0943 181.166 55.7622 179.598 58.1946C178.043 60.6391 176.159 62.8928 174.1 64.9719C169.974 69.1545 165.045 72.464 160.545 76.4029C158.296 78.3723 156.156 80.5042 154.211 82.8554C153.021 84.2726 151.908 85.7791 150.889 87.3588C148.854 85.905 146.897 84.4025 144.948 82.8879C142.434 80.9265 139.965 78.9327 137.566 76.878C135.19 74.7908 132.77 72.797 130.366 70.7219C127.986 68.6469 125.688 66.3648 124.068 63.6278L123.28 62.2959L122.724 63.6887C121.737 66.1536 120.624 68.5657 119.451 70.9574C118.277 73.3533 117.022 75.7288 115.877 78.1612C114.716 80.5895 113.705 83.0869 112.844 85.6451C111.971 88.1953 111.159 90.786 110.501 93.4255C109.9 95.801 109.461 98.2293 109.177 100.678C107.532 100.54 105.945 100.239 104.406 99.7968C102.128 99.1471 99.951 98.2212 97.8678 97.1167C95.7847 96.0122 93.8314 94.6965 91.9148 93.3402C90.0103 91.9758 88.0896 90.5302 86.6074 88.6988L84.9953 86.7009L84.4836 88.8896C83.2532 94.1645 81.7995 99.1958 80.2117 104.353C79.4483 106.931 78.7418 109.555 78.3073 112.235C77.889 114.915 77.6697 117.636 77.5966 120.377C77.5317 123.122 77.6819 125.895 78.1692 128.636C78.6646 131.373 79.4686 134.082 80.6138 136.648C81.5152 138.658 82.636 140.579 83.9679 142.329C81.6736 141.375 79.3793 140.477 77.288 139.182C74.3115 137.391 71.94 134.662 70.5106 131.519L69.7229 129.793L68.8864 131.645C67.059 135.686 65.9017 140.169 65.8977 144.692C65.9301 149.2 66.6042 153.752 68.2488 158.028C69.9056 162.275 72.5166 166.271 76.0982 169.26C77.8362 170.73 79.826 171.928 81.9497 172.707C76.8495 173.905 71.8872 175.428 66.8438 176.435C63.9688 176.991 61.0451 177.353 58.1498 177.17C55.2626 176.995 52.3957 176.228 50.0283 174.636L48.3025 173.483L48.9157 175.485C51.3927 183.582 55.7824 191.232 61.9141 197.34C64.9799 200.385 68.4437 203.008 72.1146 205.282C75.7896 207.561 79.7001 209.457 83.7568 210.951C91.8864 213.936 100.649 215.065 109.222 214.521C116.486 214.046 123.645 212.279 130.143 209.254C128.457 210.801 126.727 212.291 124.937 213.704C122.155 215.849 119.203 217.773 116.072 219.227C112.949 220.701 109.68 221.708 106.391 222.26L102.704 222.886L105.498 225.631C107.467 227.568 109.571 229.395 111.837 231.04C114.103 232.697 116.527 234.187 119.142 235.389C121.749 236.595 124.555 237.508 127.491 237.898C130.419 238.296 133.456 238.178 136.351 237.484C139.259 236.814 141.976 235.547 144.404 233.955C146.828 232.347 148.948 230.374 150.759 228.197C152.558 226.017 154.06 223.625 155.222 221.095C155.636 220.165 156.022 219.219 156.346 218.252C157.536 221.225 159.36 223.832 161.398 226.086C163.696 228.636 166.255 230.816 168.805 232.948C171.359 235.08 173.958 237.131 176.455 239.267C177.702 240.335 178.92 241.427 180.021 242.593C181.121 243.738 182.144 245.005 182.68 246.255L183.651 248.529L185.015 246.231C185.702 245.066 186.843 243.993 188.036 242.99C189.242 241.992 190.546 241.033 191.858 240.067C194.489 238.146 197.181 236.181 199.788 234.028C202.403 231.88 204.941 229.537 207.175 226.8C209.01 224.567 210.594 221.996 211.662 219.166C211.905 219.816 212.173 220.462 212.458 221.095C213.619 223.625 215.122 226.017 216.924 228.197C218.732 230.374 220.847 232.347 223.275 233.955C225.7 235.547 228.42 236.814 231.328 237.484C234.219 238.178 237.265 238.296 240.188 237.898C243.124 237.508 245.934 236.595 248.537 235.389C251.152 234.187 253.577 232.697 255.843 231.04C258.108 229.395 260.212 227.568 262.181 225.631L264.971 222.89L261.288 222.26C257.946 221.692 254.628 220.665 251.457 219.162C248.269 217.684 245.264 215.739 242.418 213.579C240.94 212.433 239.498 211.24 238.085 210.001C244.692 213.168 252.038 214.984 259.485 215.394C268.021 215.853 276.731 214.569 284.747 211.422C288.751 209.847 292.596 207.865 296.19 205.514C299.784 203.167 303.162 200.471 306.135 197.38C312.096 191.184 316.315 183.529 318.764 175.485L319.377 173.479L317.651 174.636Z" fill="#BA8E5C"/>
</g>
<mask id="mask1_14_337" style="mask-type:luminance" maskUnits="userSpaceOnUse" x="47" y="221" width="273" height="205">
<path d="M47.5593 221.424H319.145V425.013H47.5593V221.424Z" fill="white"/>
</mask>
<g mask="url(#mask1_14_337)">
<path d="M183.468 424.635C183.18 424.635 182.847 424.538 182.558 424.395C182.079 424.107 181.795 423.677 181.698 423.202C181.076 420.952 175.623 400.62 178.157 383.877C178.778 379.857 180.025 375.504 181.555 370.96C180.118 366.798 178.445 362.542 176.772 358.331C172.273 346.754 167.968 335.847 167.968 327.38C167.968 317.956 171.554 303.126 181.267 288.247C180.646 287.386 180.025 286.525 179.399 285.616C178.205 284.04 177.007 282.509 175.716 280.978C148.643 296.239 110.899 305.375 95.8293 304.847C91.5696 304.705 89.0844 303.844 87.9352 302.123C83.5821 295.52 95.3988 285.234 111.28 273.848C85.446 275.334 68.2244 269.21 59.2786 264.76C52.1033 261.126 47.5593 253.804 47.7502 246.056C47.8923 240.887 49.9024 236.871 53.7316 234.049C62.4378 227.685 80.5203 228.404 107.358 236.249C137.257 244.956 160.456 258.445 176.532 276.43C177.824 275.667 179.115 274.9 180.309 274.087C175.046 270.311 170.6 266.242 167.298 261.938C158.641 250.6 156.342 240.887 160.505 233.139C165.288 224.291 177.247 221.18 181.316 221.464H185.62C189.685 221.229 201.644 224.291 206.432 233.139C210.59 240.887 208.344 250.6 199.638 261.938C196.337 266.242 191.886 270.311 186.623 274.136C187.87 274.948 189.112 275.716 190.453 276.479C206.525 258.494 229.728 245.004 259.627 236.294C286.465 228.449 304.547 227.734 313.253 234.097C317.078 236.871 319.088 240.936 319.231 246.105C319.421 253.853 314.877 261.17 307.653 264.76C298.756 269.21 281.441 275.334 255.656 273.848C271.537 285.234 283.354 295.52 279.001 302.123C277.9 303.844 275.362 304.705 271.107 304.847C256.037 305.375 218.293 296.19 191.216 280.978C189.925 282.509 188.731 284.04 187.533 285.616C186.863 286.477 186.242 287.338 185.669 288.203C195.378 303.077 198.968 317.907 198.968 327.332C198.968 335.798 194.708 346.706 190.164 358.283C188.54 362.494 186.814 366.798 185.381 370.96C186.912 375.504 188.154 379.906 188.775 383.926C191.362 400.717 185.86 421.143 185.239 423.246C185.19 423.583 184.999 423.916 184.759 424.156C184.378 424.444 183.898 424.635 183.468 424.635ZM183.468 376.702C182.701 379.378 182.079 381.965 181.698 384.401C180.069 394.975 181.937 407.462 183.468 415.161C185.048 407.462 186.863 395.024 185.239 384.401C184.853 382.01 184.231 379.427 183.468 376.702ZM183.468 291.406C174.762 305.185 171.554 318.674 171.554 327.332C171.554 335.128 175.911 346.226 180.118 356.991C181.267 359.862 182.368 362.782 183.468 365.698C184.52 362.782 185.669 359.862 186.814 356.991C191.025 346.226 195.378 335.128 195.378 327.332C195.378 318.674 192.174 305.229 183.468 291.406ZM193.563 278.201C219.921 292.791 256.756 301.834 270.965 301.306C275.318 301.164 276.032 300.161 276.032 300.161C276.703 299.154 277.133 295.902 266.993 287.053C261.54 282.314 254.697 277.389 248.72 273.227C243.742 272.703 238.434 271.886 232.883 270.741C231.113 270.356 229.63 269.21 228.867 267.582C228.148 266.002 228.197 264.232 229.009 262.701C229.728 261.365 230.873 260.504 232.213 260.216C234.321 259.737 236.855 260.646 239.965 262.896C241.496 264.041 243.648 265.479 246.137 267.2C247.429 268.061 248.671 268.922 249.914 269.783C278.189 272.556 296.746 266.149 305.98 261.507C312.007 258.494 315.787 252.419 315.645 246.056C315.547 242.036 314.017 238.925 311.146 236.822C305.79 232.899 292.682 230.175 260.581 239.551C231.641 248.066 209.156 261.028 193.563 278.201ZM118.265 273.275C112.332 277.389 105.445 282.314 99.9915 287.053C89.8478 295.853 90.2782 299.154 90.9483 300.161C90.9483 300.161 91.667 301.164 96.0201 301.306C110.18 301.786 147.015 292.791 173.422 278.201C157.78 261.028 135.296 248.066 106.351 239.644C74.2993 230.268 61.1465 232.997 55.7864 236.919C52.8708 239.023 51.3845 242.133 51.2911 246.15C51.1003 252.513 54.9255 258.588 60.907 261.601C70.137 266.242 88.6986 272.654 116.974 269.88C118.216 269.016 119.459 268.155 120.75 267.294C123.239 265.572 125.391 264.09 126.922 262.989C130.033 260.74 132.567 259.834 134.674 260.309C136.01 260.598 137.159 261.459 137.878 262.799C138.69 264.281 138.788 266.1 138.02 267.68C137.257 269.304 135.775 270.502 134.004 270.835C128.502 271.935 123.239 272.747 118.265 273.275ZM178.875 279.159C180.069 280.593 181.218 282.03 182.27 283.512C182.656 284.04 183.086 284.564 183.468 285.141C183.85 284.613 184.231 284.085 184.617 283.561C185.718 282.079 186.863 280.641 188.012 279.208C186.432 278.25 184.901 277.295 183.419 276.288C181.986 277.247 180.455 278.201 178.875 279.159ZM180.788 224.957C177.535 224.957 167.489 227.588 163.615 234.812C160.123 241.273 162.324 249.642 170.072 259.785C173.373 264.09 177.966 268.203 183.419 271.984C188.873 268.155 193.466 264.09 196.767 259.785C204.612 249.642 206.764 241.224 203.321 234.812C199.301 227.352 188.633 224.766 185.811 224.957C185.762 224.957 185.718 224.957 185.669 224.957H181.267C181.218 224.957 181.17 224.957 181.125 224.957C181.028 224.957 180.93 224.957 180.788 224.957ZM233.314 263.659C233.171 263.659 233.029 263.659 232.981 263.708C232.741 263.757 232.404 263.899 232.071 264.472C231.689 265.19 231.88 265.812 232.022 266.149C232.311 266.77 232.883 267.2 233.504 267.343C236.522 267.964 239.486 268.492 242.308 268.922C240.586 267.724 239.055 266.672 237.858 265.812C235.421 263.992 234.032 263.659 233.314 263.659ZM133.574 263.659C132.904 263.659 131.466 263.992 128.981 265.763C127.783 266.624 126.252 267.68 124.531 268.873C127.401 268.443 130.321 267.919 133.334 267.294C134.004 267.152 134.577 266.721 134.816 266.1C134.959 265.763 135.149 265.093 134.768 264.427C134.435 263.85 134.146 263.708 133.858 263.659C133.858 263.659 133.765 263.659 133.574 263.659Z" fill="#BA8E5C"/>
</g>
</g>
<defs>
<clipPath id="clip0_14_337">
<rect width="272.881" height="389.831" fill="white" transform="translate(47.5593 40.5424)"/>
</clipPath>
</defs>
</svg>
