<svg width="150" height="150" viewBox="0 0 150 150" fill="none" xmlns="http://www.w3.org/2000/svg">
<circle cx="75" cy="75" r="70" fill="#FEDFB2" stroke="white" stroke-width="10"/>
<path d="M37.0333 62.5012C37.0333 55.7013 38.6992 49.4348 42.0311 43.7015C45.363 37.9683 49.9276 33.4351 55.725 30.1018C61.5224 26.7685 67.7863 25.0686 74.5167 25.0019C81.247 24.9352 87.5109 26.6352 93.3083 30.1018C99.1057 33.5684 103.67 38.1016 107.002 43.7015C110.334 49.3014 112 55.568 112 62.5012C112 65.3678 111.3 68.7011 109.901 72.501C108.502 76.3009 106.736 80.1342 104.603 84.0008C102.471 87.8674 100.039 91.8006 97.3065 95.8006C94.5744 99.8005 91.9089 103.534 89.3101 107C86.7112 110.467 84.279 113.534 82.0133 116.2C79.7477 118.867 77.9485 121.033 76.6157 122.7L74.5167 125C73.9836 124.467 73.2839 123.667 72.4176 122.6C71.5513 121.533 69.7854 119.433 67.1199 116.3C64.4545 113.167 61.9889 110.034 59.7232 106.9C57.4576 103.767 54.8254 100.1 51.8267 95.9006C48.8281 91.7006 46.3625 87.7007 44.43 83.9008C42.4976 80.1008 40.7317 76.3343 39.1324 72.601C37.5331 68.8677 36.8334 65.5011 37.0333 62.5012ZM49.5278 62.5012C49.5278 69.4344 51.96 75.3343 56.8245 80.2008C61.689 85.0674 67.5864 87.5007 74.5167 87.5007C81.4469 87.5007 87.3443 85.0674 92.2088 80.2008C97.0733 75.3343 99.5056 69.4344 99.5056 62.5012C99.5056 55.568 97.0733 49.7014 92.2088 44.9015C87.3443 40.1016 81.4469 37.635 74.5167 37.5017C67.5864 37.3683 61.689 39.8349 56.8245 44.9015C51.96 49.9681 49.5278 55.8346 49.5278 62.5012Z" fill="#BA8E5C"/>
</svg>
