<svg width="1439" height="289" viewBox="0 0 1439 289" fill="none" xmlns="http://www.w3.org/2000/svg">
<path d="M3.38248 143.183C3.05248 143.183 2.72998 143.115 2.41498 142.987C2.10748 142.859 1.82998 142.679 1.59748 142.438C1.35748 142.205 1.17748 141.926 1.04998 141.617C0.91498 141.309 0.85498 140.985 0.85498 140.647C0.85498 140.315 0.91498 139.992 1.04998 139.676C1.17748 139.367 1.35748 139.096 1.59748 138.855C1.82998 138.615 2.10748 138.434 2.41498 138.306C2.72998 138.178 3.05248 138.11 3.38248 138.11H1436.62C1436.95 138.11 1437.27 138.178 1437.58 138.306C1437.89 138.434 1438.17 138.615 1438.4 138.855C1438.64 139.096 1438.82 139.367 1438.95 139.676C1439.08 139.992 1439.14 140.315 1439.14 140.647C1439.14 140.985 1439.08 141.309 1438.95 141.617C1438.82 141.926 1438.64 142.205 1438.4 142.438C1438.17 142.679 1437.89 142.859 1437.58 142.987C1437.27 143.115 1436.95 143.183 1436.62 143.183H3.38248Z" fill="#BA8E5C"/>
<path fill-rule="evenodd" clip-rule="evenodd" d="M48.5775 169.456C51.2775 169.456 53.5275 156.549 53.5275 140.647C53.5275 124.744 51.2775 111.837 48.5775 111.837C45.87 111.837 43.575 124.744 43.575 140.647C43.575 156.549 45.8175 169.456 48.5775 169.456Z" fill="#BA8E5C"/>
<path fill-rule="evenodd" clip-rule="evenodd" d="M108.87 148.481C111.577 148.481 113.82 144.944 113.82 140.647C113.82 136.357 111.577 132.812 108.87 132.812C106.162 132.812 103.867 136.297 103.867 140.647C103.867 144.997 106.11 148.481 108.87 148.481Z" fill="#BA8E5C"/>
<path fill-rule="evenodd" clip-rule="evenodd" d="M207.653 178.39C210.353 178.39 212.603 161.449 212.603 140.647C212.603 119.845 210.353 102.911 207.653 102.911C204.945 102.911 202.65 119.845 202.65 140.647C202.65 161.449 204.893 178.39 207.653 178.39Z" fill="#BA8E5C"/>
<path fill-rule="evenodd" clip-rule="evenodd" d="M181.447 160.207C184.177 160.207 186.397 151.424 186.397 140.647C186.397 129.877 184.177 121.086 181.447 121.086C178.71 121.086 176.325 129.877 176.325 140.647C176.325 151.424 178.567 160.207 181.327 160.207H181.447Z" fill="#BA8E5C"/>
<path fill-rule="evenodd" clip-rule="evenodd" d="M267.142 214.718C269.842 214.718 272.085 181.438 272.085 140.647C272.085 99.8555 269.842 66.5829 267.142 66.5829C264.435 66.5829 262.132 99.8254 262.132 140.647C262.132 181.468 264.375 214.718 267.142 214.718Z" fill="#BA8E5C"/>
<path fill-rule="evenodd" clip-rule="evenodd" d="M332.67 178.39C335.37 178.39 337.612 161.449 337.612 140.647C337.612 119.845 335.37 102.911 332.67 102.911C329.962 102.911 327.66 119.845 327.66 140.647C327.66 161.449 329.91 178.39 332.67 178.39Z" fill="#BA8E5C"/>
<path fill-rule="evenodd" clip-rule="evenodd" d="M306.435 160.207C309.307 160.207 311.407 151.424 311.407 140.647C311.407 129.877 309.195 121.086 306.435 121.086C303.675 121.086 301.455 129.726 301.455 140.647C301.455 151.567 303.697 160.207 306.435 160.207Z" fill="#BA8E5C"/>
<path fill-rule="evenodd" clip-rule="evenodd" d="M451.582 203.135C454.462 203.135 456.592 175.048 456.592 140.647C456.592 106.253 454.35 78.1655 451.582 78.1655C448.822 78.1655 446.722 106.223 446.722 140.647C446.722 175.071 448.965 203.135 451.672 203.135H451.582Z" fill="#BA8E5C"/>
<path fill-rule="evenodd" clip-rule="evenodd" d="M425.378 173.031C428.258 173.031 430.328 158.483 430.328 140.647C430.328 122.817 428.145 108.27 425.378 108.27C422.618 108.27 420.375 122.817 420.375 140.647C420.375 158.483 422.618 173.031 425.378 173.031Z" fill="#BA8E5C"/>
<path fill-rule="evenodd" clip-rule="evenodd" d="M481.875 190.717C484.583 190.717 486.825 168.215 486.825 140.647C486.825 113.079 484.583 90.5232 481.875 90.5232C479.175 90.5232 476.873 113.019 476.873 140.647C476.873 168.275 479.115 190.717 481.875 190.717Z" fill="#BA8E5C"/>
<path fill-rule="evenodd" clip-rule="evenodd" d="M508.05 166.574C510.93 166.574 513.06 155.052 513.06 140.647C513.06 126.242 510.817 114.719 508.05 114.719C505.29 114.719 503.107 126.385 503.107 140.647C503.107 154.909 505.35 166.574 508.05 166.574Z" fill="#BA8E5C"/>
<path fill-rule="evenodd" clip-rule="evenodd" d="M641.325 185.765C644.033 185.765 646.275 165.595 646.275 140.647C646.275 115.698 644.033 95.4753 641.325 95.4753C638.625 95.4753 636.323 115.645 636.323 140.647C636.323 165.656 638.565 185.765 641.325 185.765Z" fill="#BA8E5C"/>
<path fill-rule="evenodd" clip-rule="evenodd" d="M615.12 161.682C618 161.682 620.07 152.229 620.07 140.647C620.07 129.064 617.85 119.619 615.12 119.619C612.39 119.619 610.117 129.124 610.117 140.647C610.117 152.169 612.36 161.682 615.12 161.682Z" fill="#BA8E5C"/>
<mask id="mask0_17_54" style="mask-type:luminance" maskUnits="userSpaceOnUse" x="666" y="49" width="12" height="183">
<path d="M666.24 49.6117H677.76V231.682H666.24V49.6117Z" fill="white"/>
</mask>
<g mask="url(#mask0_17_54)">
<path fill-rule="evenodd" clip-rule="evenodd" d="M671.557 231.652C674.437 231.652 676.56 190.778 676.56 140.647C676.56 90.5233 674.317 49.6418 671.557 49.6418C668.797 49.6418 666.607 90.5233 666.607 140.647C666.607 190.778 668.857 231.652 671.557 231.652Z" fill="#BA8E5C"/>
</g>
<path fill-rule="evenodd" clip-rule="evenodd" d="M697.793 166.574C700.523 166.574 702.773 155.052 702.773 140.647C702.773 126.242 700.523 114.719 697.793 114.719C695.063 114.719 692.812 126.385 692.812 140.647C692.812 154.909 695.033 166.574 697.793 166.574Z" fill="#BA8E5C"/>
<path fill-rule="evenodd" clip-rule="evenodd" d="M748.335 148.481C751.208 148.481 753.338 144.944 753.338 140.647C753.338 136.357 751.095 132.812 748.335 132.812C745.575 132.812 743.385 136.297 743.385 140.647C743.385 144.997 745.628 148.481 748.335 148.481Z" fill="#BA8E5C"/>
<path fill-rule="evenodd" clip-rule="evenodd" d="M803.423 161.682C806.295 161.682 808.425 152.229 808.425 140.647C808.425 129.064 806.183 119.619 803.423 119.619C800.663 119.619 798.473 129.064 798.473 140.647C798.473 152.229 800.715 161.682 803.423 161.682Z" fill="#BA8E5C"/>
<path fill-rule="evenodd" clip-rule="evenodd" d="M828.623 190.717C831.495 190.717 833.625 168.215 833.625 140.647C833.625 113.079 831.413 90.5232 828.623 90.5232C825.833 90.5232 823.56 113.019 823.56 140.647C823.56 168.275 825.803 190.717 828.503 190.717H828.623Z" fill="#BA8E5C"/>
<path fill-rule="evenodd" clip-rule="evenodd" d="M854.88 166.574C857.587 166.574 859.83 155.052 859.83 140.647C859.83 126.242 857.587 114.719 854.88 114.719C852.18 114.719 849.877 126.385 849.877 140.647C849.877 154.909 852.12 166.574 854.88 166.574Z" fill="#BA8E5C"/>
<path fill-rule="evenodd" clip-rule="evenodd" d="M1124.16 159.432C1127.04 159.432 1129.11 150.987 1129.11 140.647C1129.11 130.306 1126.92 121.862 1124.16 121.862C1121.4 121.862 1119.16 130.306 1119.16 140.647C1119.16 150.987 1121.4 159.432 1124.16 159.432Z" fill="#BA8E5C"/>
<path fill-rule="evenodd" clip-rule="evenodd" d="M1149.39 185.442C1152.26 185.442 1154.39 165.279 1154.39 140.647C1154.39 116.014 1152.15 95.8215 1149.39 95.8215C1146.62 95.8215 1144.44 115.991 1144.44 140.647C1144.44 165.309 1146.68 185.442 1149.39 185.442Z" fill="#BA8E5C"/>
<path fill-rule="evenodd" clip-rule="evenodd" d="M1175.63 163.865C1178.36 163.865 1180.6 153.441 1180.6 140.647C1180.6 127.86 1178.36 117.429 1175.63 117.429C1172.89 117.429 1170.65 127.86 1170.65 140.647C1170.65 153.441 1172.86 163.865 1175.63 163.865Z" fill="#BA8E5C"/>
<path fill-rule="evenodd" clip-rule="evenodd" d="M925.013 148.481C927.893 148.481 930.023 144.944 930.023 140.647C930.023 136.357 927.803 132.812 925.013 132.812C922.223 132.812 920.062 136.297 920.062 140.647C920.062 144.997 922.313 148.481 925.013 148.481Z" fill="#BA8E5C"/>
<path fill-rule="evenodd" clip-rule="evenodd" d="M945.262 157.671C948.142 157.671 950.272 150.039 950.272 140.647C950.272 131.254 948.03 123.562 945.262 123.562C942.502 123.562 940.32 131.254 940.32 140.647C940.32 150.039 942.562 157.671 945.262 157.671Z" fill="#BA8E5C"/>
<path fill-rule="evenodd" clip-rule="evenodd" d="M1015.66 152.779C1018.53 152.779 1020.66 147.33 1020.66 140.647C1020.66 133.964 1018.42 128.522 1015.66 128.522C1012.89 128.522 1010.71 133.964 1010.71 140.647C1010.71 147.33 1012.95 152.779 1015.66 152.779Z" fill="#BA8E5C"/>
<path fill-rule="evenodd" clip-rule="evenodd" d="M1035.91 203.135C1038.61 203.135 1040.86 175.048 1040.86 140.647C1040.86 106.253 1038.61 78.1655 1035.91 78.1655C1033.2 78.1655 1030.9 106.223 1030.9 140.647C1030.9 175.071 1033.15 203.135 1035.91 203.135Z" fill="#BA8E5C"/>
<path fill-rule="evenodd" clip-rule="evenodd" d="M1056.1 184.952C1058.98 184.952 1061.11 165.076 1061.11 140.647C1061.11 116.217 1058.87 96.2806 1056.1 96.2806C1053.34 96.2806 1051.16 116.217 1051.16 140.647C1051.16 165.076 1053.37 184.952 1056.1 184.952Z" fill="#BA8E5C"/>
<path fill-rule="evenodd" clip-rule="evenodd" d="M1242.71 146.615C1243.52 146.765 1244.34 146.75 1245.15 146.57C1245.97 146.389 1246.71 146.05 1247.38 145.561C1248.05 145.064 1248.6 144.462 1249.03 143.747C1249.45 143.025 1249.72 142.25 1249.82 141.422C1249.92 140.594 1249.86 139.781 1249.63 138.983C1249.4 138.178 1249.01 137.456 1248.48 136.816C1247.96 136.169 1247.32 135.657 1246.58 135.281C1245.83 134.897 1245.05 134.686 1244.21 134.626C1243.38 134.573 1242.58 134.686 1241.79 134.972C1241 135.25 1240.31 135.679 1239.7 136.244C1239.09 136.816 1238.62 137.486 1238.29 138.246C1237.96 139.014 1237.79 139.811 1237.79 140.647C1237.73 141.369 1237.81 142.084 1238.03 142.777C1238.24 143.469 1238.59 144.094 1239.05 144.651C1239.52 145.207 1240.07 145.659 1240.71 145.998C1241.36 146.336 1242.04 146.54 1242.76 146.615H1242.71Z" fill="#BA8E5C"/>
<path fill-rule="evenodd" clip-rule="evenodd" d="M1267.93 163.865C1270.81 163.865 1272.94 153.441 1272.94 140.647C1272.94 127.86 1270.69 117.429 1267.93 117.429C1265.17 117.429 1262.98 127.86 1262.98 140.647C1262.98 153.441 1265.23 163.865 1267.93 163.865Z" fill="#BA8E5C"/>
<path fill-rule="evenodd" clip-rule="evenodd" d="M1294.16 185.442C1296.9 185.442 1299.11 165.279 1299.11 140.647C1299.11 116.014 1296.9 95.8215 1294.16 95.8215C1291.43 95.8215 1289.16 115.991 1289.16 140.647C1289.16 165.309 1291.4 185.442 1294.16 185.442Z" fill="#BA8E5C"/>
<path fill-rule="evenodd" clip-rule="evenodd" d="M1365.76 169.456C1368.64 169.456 1370.71 156.549 1370.71 140.647C1370.71 124.744 1368.52 111.837 1365.76 111.837C1363 111.837 1360.75 124.744 1360.75 140.647C1360.75 156.549 1363 169.456 1365.76 169.456Z" fill="#BA8E5C"/>
<path fill-rule="evenodd" clip-rule="evenodd" d="M1391.48 152.515C1394.18 152.515 1396.43 147.187 1396.43 140.647C1396.43 134.107 1394.18 128.778 1391.48 128.778C1388.78 128.778 1386.47 134.107 1386.47 140.647C1386.47 147.187 1388.72 152.515 1391.48 152.515Z" fill="#BA8E5C"/>
<mask id="mask1_17_54" style="mask-type:luminance" maskUnits="userSpaceOnUse" x="667" y="137" width="8" height="8">
<path d="M667.38 137.155H674.7V144.5H667.38V137.155Z" fill="white"/>
</mask>
<g mask="url(#mask1_17_54)">
<mask id="mask2_17_54" style="mask-type:luminance" maskUnits="userSpaceOnUse" x="667" y="137" width="8" height="8">
<path d="M671.04 137.155C669.022 137.155 667.38 138.803 667.38 140.827C667.38 142.859 669.022 144.5 671.04 144.5C673.065 144.5 674.7 142.859 674.7 140.827C674.7 138.803 673.065 137.155 671.04 137.155Z" fill="white"/>
</mask>
<g mask="url(#mask2_17_54)">
<path d="M667.38 137.155H674.7V144.5H667.38V137.155Z" fill="#BA8E5C"/>
</g>
</g>
</svg>
