<svg width="318" height="318" viewBox="0 0 318 318" fill="none" xmlns="http://www.w3.org/2000/svg">
<circle cx="159" cy="159" r="149" fill="#FEDFB2" stroke="white" stroke-width="20"/>
<path d="M198.612 151.448C207.36 140.186 212.027 126.353 211.971 112.457C211.981 105.519 210.754 98.585 208.368 92.0437C205.948 85.5163 202.357 79.3722 197.657 73.9993C203.13 78.5847 207.544 84.5546 210.41 91.226C213.328 97.8812 214.752 105.175 214.789 112.451C214.777 119.726 213.407 127.006 210.652 133.712C207.941 140.432 203.811 146.556 198.612 151.448Z" fill="#BA8E5C"/>
<path d="M207.641 160.472C208.951 158.693 210.266 156.934 211.6 155.204L215.051 149.629L218.036 143.817L220.464 137.768C223.319 129.575 224.849 120.934 224.81 112.283C224.833 103.635 223.265 94.9961 220.238 86.8729C219.377 84.8891 218.559 82.8751 217.66 80.8983C216.598 79.0052 215.572 77.0841 214.478 75.2002L210.791 69.7832C209.37 68.1246 207.967 66.4382 206.568 64.7262C208.152 66.2477 209.732 67.7924 211.293 69.365C212.71 71.0585 214.083 72.8006 215.486 74.5289C216.712 76.3756 217.851 78.2874 219.04 80.1736C220.064 82.1457 221.01 84.1644 221.999 86.1667C225.544 94.3712 227.249 103.342 227.277 112.281C227.256 121.222 225.595 130.172 222.232 138.435L219.43 144.495C218.31 146.419 217.223 148.358 216.078 150.254L212.12 155.594C210.643 157.246 209.144 158.869 207.641 160.472Z" fill="#BA8E5C"/>
<path d="M217.407 169.232C218.998 167.185 220.596 165.16 222.211 163.157L226.413 156.683L230.032 149.891C231.059 147.543 231.995 145.157 232.98 142.797C236.466 133.18 238.301 122.964 238.157 112.748C238.181 102.532 236.234 92.334 232.599 82.7706C231.579 80.4268 230.61 78.0527 229.544 75.7229C228.301 73.4859 227.093 71.2187 225.813 68.9934L221.495 62.6007C219.841 60.6309 218.204 58.6355 216.571 56.6192C218.368 58.4752 220.157 60.3521 221.932 62.2499L226.682 68.4312C228.078 70.6241 229.379 72.8819 230.731 75.1119C231.904 77.4372 232.982 79.8135 234.111 82.169C238.141 91.8137 240.127 102.278 240.271 112.734C240.241 123.192 238.383 133.675 234.492 143.373C233.398 145.747 232.355 148.137 231.224 150.481C229.909 152.732 228.643 155.013 227.288 157.229L222.654 163.497C220.917 165.429 219.165 167.341 217.407 169.232Z" fill="#BA8E5C"/>
<mask id="mask0_26_138" style="mask-type:luminance" maskUnits="userSpaceOnUse" x="225" y="47" width="29" height="132">
<path d="M225.421 47.0302H253.498V178.981H225.421V47.0302Z" fill="white"/>
</mask>
<g mask="url(#mask0_26_138)">
<path d="M226.657 178.981C234.787 169.931 241.205 159.436 245.444 148.131C249.686 136.836 251.891 124.781 251.742 112.729C251.726 100.678 249.356 88.6476 244.906 77.4349C240.464 66.2128 233.8 55.8619 225.43 47.0302L231.744 53.6296C233.649 56.0036 235.477 58.4473 237.351 60.8608C239.017 63.4161 240.545 66.0642 242.153 68.6682C243.556 71.379 244.817 74.1688 246.16 76.9215C250.943 88.2039 253.349 100.46 253.503 112.718C253.507 124.973 251.28 137.257 246.701 148.621C245.417 151.399 244.202 154.207 242.859 156.948C241.31 159.587 239.832 162.263 238.229 164.856C236.413 167.315 234.638 169.799 232.796 172.221L226.657 178.981Z" fill="#BA8E5C"/>
</g>
<path d="M124.188 74.5637C115.44 85.8252 110.773 99.6582 110.831 113.554C110.82 120.492 112.046 127.426 114.432 133.968C116.852 140.495 120.444 146.639 125.143 152.012C119.672 147.429 115.257 141.457 112.39 134.785C109.472 128.13 108.049 120.836 108.014 113.561C108.023 106.285 109.393 99.0078 112.148 92.2992C114.859 85.579 118.989 79.4558 124.188 74.5637Z" fill="#BA8E5C"/>
<path d="M115.159 65.5392C113.851 67.3209 112.534 69.077 111.201 70.8076L107.749 76.3826L104.766 82.1945L102.337 88.2434C99.4817 96.4386 97.9532 105.078 97.9904 113.728C97.9671 122.376 99.5351 131.015 102.562 139.136C103.424 141.122 104.241 143.136 105.14 145.115C106.202 147.006 107.229 148.927 108.323 150.811L112.009 156.228C113.431 157.889 114.834 159.576 116.232 161.285C114.648 159.766 113.068 158.219 111.507 156.644C110.09 154.953 108.72 153.211 107.315 151.482C106.088 149.636 104.95 147.724 103.761 145.838C102.738 143.866 101.791 141.847 100.801 139.845C97.2563 131.64 95.5536 122.669 95.5234 113.73C95.5443 104.79 97.2052 95.8393 100.571 87.5767L103.37 81.5162C104.492 79.5928 105.577 77.6532 106.722 75.7577L110.68 70.4173C112.158 68.7657 113.656 67.1397 115.159 65.5392Z" fill="#BA8E5C"/>
<path d="M105.396 56.7795C103.802 58.826 102.204 60.8516 100.59 62.8539L96.3874 69.3279L92.7683 76.1201C91.7439 78.4686 90.8078 80.8542 89.8229 83.2143C86.3339 92.8311 84.5011 103.047 84.6428 113.264C84.6219 123.482 86.5662 133.677 90.2015 143.241C91.2213 145.585 92.1923 147.959 93.2562 150.288C94.5012 152.525 95.7068 154.793 96.9868 157.018L101.305 163.411C102.959 165.383 104.597 167.376 106.23 169.392C104.434 167.536 102.643 165.659 100.868 163.761L96.118 157.58C94.7219 155.387 93.4211 153.129 92.0691 150.899C90.8984 148.574 89.8206 146.198 88.6893 143.842C84.6614 134.198 82.6729 123.733 82.5312 113.277C82.5591 102.82 84.4175 92.3364 88.3107 82.6382C89.4024 80.2642 90.4454 77.8739 91.5767 75.5301C92.8938 73.2792 94.1574 71.0004 95.5117 68.782L100.148 62.5148C101.883 60.5821 103.637 58.6703 105.396 56.7795Z" fill="#BA8E5C"/>
<mask id="mask1_26_138" style="mask-type:luminance" maskUnits="userSpaceOnUse" x="69" y="47" width="29" height="132">
<path d="M69.3 47.0302H97.477V178.981H69.3V47.0302Z" fill="white"/>
</mask>
<g mask="url(#mask1_26_138)">
<path d="M96.146 47.0302C88.0158 56.0803 81.5953 66.5752 77.3583 77.8785C73.1166 89.1749 70.9122 101.231 71.0608 113.282C71.0771 125.333 73.4441 137.364 77.8972 148.577C82.3386 159.799 89.003 170.149 97.3702 178.981L91.0565 172.382C89.154 170.008 87.3259 167.564 85.449 165.151C83.7858 162.595 82.255 159.947 80.6475 157.343C79.2445 154.632 77.9831 151.843 76.6428 149.09C71.8599 137.807 69.4511 125.552 69.3001 113.294C69.2931 101.038 71.5208 88.7544 76.1016 77.393C77.3861 74.6125 78.5987 71.8018 79.9437 69.0631C81.4907 66.4242 82.9704 63.7482 84.5732 61.1559C86.3898 58.6959 88.1621 56.2127 90.0042 53.7899L96.146 47.0302Z" fill="#BA8E5C"/>
</g>
<mask id="mask2_26_138" style="mask-type:luminance" maskUnits="userSpaceOnUse" x="69" y="88" width="185" height="182">
<path d="M69.3 88.4664H253.349V269.988H69.3V88.4664Z" fill="white"/>
</mask>
<g mask="url(#mask2_26_138)">
<path fill-rule="evenodd" clip-rule="evenodd" d="M141.791 146.486C142.5 146.093 144.86 145.503 147.18 143.81C148.556 142.788 149.933 141.331 150.876 139.245C151.664 137.515 151.664 135.94 151.271 134.483C150.563 131.689 148.439 129.408 147.652 127.714C146.865 126.023 146 123.898 145.371 121.34C144.86 119.333 144.465 117.05 144.349 114.65C143.954 107.41 145.331 101.586 147.928 97.2958C151.429 91.5512 157.053 88.5593 163.504 88.4803C169.127 88.4803 173.336 90.6453 176.247 94.6593C179.434 99.1053 180.967 105.953 180.77 114.611C180.73 116.697 180.259 119.215 179.55 121.654C178.805 124.253 177.82 126.732 176.877 128.228C175.776 130.037 174.359 131.807 173.887 134.091C173.534 135.821 173.729 137.868 174.988 140.425C175.657 141.763 176.916 142.827 178.294 143.654C181.046 145.266 184.31 146.014 185.018 146.33C184.27 146.014 180.928 145.503 178.057 144.047C176.484 143.259 175.107 142.198 174.28 140.781C172.746 138.065 172.472 135.861 172.746 133.933C173.1 131.454 174.438 129.487 175.499 127.48C176.287 126.023 177.114 123.661 177.664 121.182C178.215 118.901 178.528 116.539 178.489 114.611C178.333 106.662 176.837 100.443 173.769 96.4293C171.369 93.2818 167.947 91.6279 163.464 91.7069C158.075 91.7069 153.394 94.1877 150.326 98.8707C147.849 102.687 146.393 107.96 146.511 114.571C146.551 116.855 146.786 119.017 147.18 120.948C147.652 123.387 148.321 125.473 148.99 127.124C149.698 128.897 151.703 131.375 152.254 134.288C152.57 135.94 152.491 137.749 151.466 139.64C150.326 141.763 148.832 143.18 147.299 144.165C144.978 145.698 142.539 146.133 141.791 146.486ZM139.629 147.076C139.629 147.076 133.531 147.431 126.885 155.064C123.226 159.276 119.489 165.768 116.499 175.529C113.826 185.643 111.819 192.215 109.38 198.117C106.706 204.57 103.519 210.278 98.0531 218.856C94.4734 224.482 90.1064 229.01 85.8996 232.55C77.7577 239.358 70.2826 242.469 70.2826 242.469C70.2826 242.469 78.0318 239.83 86.6452 233.456C91.1702 230.071 95.9276 225.665 99.9416 220.076C105.958 211.576 109.617 205.948 112.527 199.416C115.164 193.434 117.168 186.705 119.96 176.393C122.125 166.911 125.31 160.535 128.418 156.168C134.003 148.219 139.629 147.076 139.629 147.076ZM186.04 146.525L193.869 150.147C195.797 151.406 197.801 153.805 199.69 156.955C201.736 160.377 203.544 164.667 204.684 169.587C205.788 173.915 207.753 179.032 210.584 184.461C212.12 187.413 213.929 190.442 215.934 193.592C222.464 203.822 230.961 214.724 239.732 224.877C244.295 230.111 247.284 234.557 249.249 238.139C252.829 244.71 252.987 248.332 252.987 248.332C252.987 248.332 253.105 244.671 249.879 237.823C248.109 234.085 245.356 229.402 241.029 223.853C232.808 213.386 225.061 202.131 218.924 191.78C217.075 188.672 215.423 185.643 213.89 182.77C211.135 177.615 208.972 172.893 207.792 168.8C206.22 163.685 203.978 159.236 201.46 155.812C199.139 152.625 196.621 150.344 194.419 149.241L186.04 146.525ZM186.591 165.613C186.435 170.296 187.457 173.443 187.378 177.102C187.339 179.188 186.946 181.471 185.687 184.305C184.705 186.626 182.816 190.326 181.399 194.143C180.496 196.582 179.866 199.1 179.708 201.383C179.316 211.181 180.575 216.533 183.525 220.155C186.828 224.169 192.296 225.978 200.083 229.481C192.847 225.467 187.771 223.263 184.86 219.17C182.345 215.63 181.478 210.631 182.266 201.581C182.384 199.534 182.935 197.211 183.68 194.97C184.9 191.111 186.475 187.334 187.3 184.974C188.361 181.824 188.598 179.346 188.44 177.102C188.205 173.364 186.867 170.296 186.591 165.613ZM138.133 165.613C137.859 170.335 136.481 173.364 136.246 177.102C136.088 179.346 136.323 181.824 137.387 184.974C138.212 187.334 139.824 191.111 141.004 194.97C141.712 197.251 142.302 199.534 142.421 201.581C143.208 210.631 142.342 215.63 139.824 219.17C136.913 223.302 131.84 225.467 124.602 229.481C132.39 226.018 137.859 224.208 141.162 220.155C144.112 216.533 145.371 211.181 144.978 201.383C144.82 199.139 144.151 196.621 143.285 194.143C141.91 190.326 139.982 186.626 138.999 184.305C137.78 181.471 137.348 179.188 137.308 177.102C137.308 173.443 138.33 170.256 138.133 165.613ZM116.539 232.355C112.253 234.006 94.3945 235.779 82.1225 239.358C74.8471 241.484 69.6531 244.592 69.4974 248.174C69.3 253.684 70.2036 258.327 75.0817 261.712C78.9378 264.348 85.4257 266.158 96.2435 266.827C115.085 267.693 123.501 259.507 136.246 258.169C139.273 257.853 142.539 257.932 146.274 258.601L163.032 261.475L146.432 257.816C142.618 256.91 139.234 256.713 136.128 256.91C123.461 257.737 114.927 265.726 96.362 264.309C86.1737 263.719 80.0388 262.104 76.3802 259.665C72.1711 256.871 71.4626 252.896 71.5021 248.174C71.5021 245.105 76.3408 242.901 82.5151 240.815C94.7104 236.801 112.369 234.164 116.539 232.355ZM202.522 230.938C202.522 230.938 211.685 234.283 221.363 236.998C225.846 238.257 230.408 239.358 234.264 239.988C239.18 240.775 243.036 242.822 245.788 245.34C249.447 248.724 251.138 252.975 250.39 256.162C249.76 258.917 247.44 262.223 240.675 263.953C235.955 265.173 229.228 265.647 219.553 264.662C203.388 263.205 192.059 263.205 183.248 264.151C173.494 265.212 166.767 267.417 159.805 269.974C166.846 267.772 173.613 265.921 183.367 265.252C192.178 264.662 203.349 265.017 219.316 266.985C229.386 268.125 236.427 267.693 241.344 266.434C249.486 264.309 252.004 259.979 252.711 256.673C253.498 252.857 251.609 247.781 247.126 243.923C244.058 241.286 239.809 239.2 234.499 238.571C230.645 238.099 226.083 237.193 221.6 236.132C211.804 233.809 202.522 230.938 202.522 230.938ZM109.696 250.573C113.354 250.457 120.118 250.652 127.475 250.023C131.368 249.709 135.419 249.08 139.313 248.213C141.712 247.584 144.072 246.915 146.235 246.167C153.75 243.53 159.373 240.499 161.576 240.462C163.662 240.422 164.958 241.286 165.587 242.94C166.335 244.908 166.177 247.818 165.155 251.321C166.572 247.818 167.044 244.829 166.454 242.664C165.864 240.499 164.291 239.2 161.615 239.045C160.632 238.966 158.941 239.398 156.7 240.067C154.3 240.815 151.192 241.876 147.691 243.019C144.939 243.923 141.91 244.947 138.723 245.811C135.027 246.915 131.092 247.663 127.317 248.292C119.96 249.512 113.275 250.141 109.696 250.573ZM170.152 255.572C170.152 255.572 174.793 251.519 181.676 248.922C185.411 247.505 189.818 246.48 194.538 246.875C199.1 247.112 203.388 247.505 207.163 247.897C214.598 248.685 219.751 249.512 219.751 249.512C219.751 249.512 214.675 248.174 207.281 246.915C203.544 246.285 199.218 245.735 194.656 245.261C189.699 244.987 185.097 246.167 181.281 247.897C174.477 250.968 170.152 255.572 170.152 255.572Z" fill="#BA8E5C"/>
</g>
</svg>
