<svg width="235" height="235" viewBox="0 0 235 235" fill="none" xmlns="http://www.w3.org/2000/svg">
<g clip-path="url(#clip0_136_28)">
<path d="M126.29 79.3125L119.505 86.4408L126.636 92.9939L133.534 85.9806L126.29 79.3125Z" fill="#694419"/>
<path d="M112.379 83.2218C112.379 83.2218 119.965 107.135 141.925 87.2462C142.043 87.3588 147.903 95.0624 148.021 95.0624C139.512 104.604 113.527 109.779 112.379 83.2218Z" fill="#694419"/>
<path d="M92.142 110.7L86.8545 101.158C113.911 82.9917 128.55 109.204 109.045 121.047L115.368 123.576C122.917 123.267 121.833 114.288 129.855 107.02C132.883 103.378 154.304 98.5898 154.804 129.211C153.55 156.997 120.846 155.08 126.29 129.211C128.205 139.193 135.607 139.597 141.411 136.939C150.199 132.831 150.045 125.965 150.082 123.182C150.167 116.347 146.873 106.462 138.361 112.538C133.994 115.657 133.801 119.054 132.956 120.702C132.114 122.349 129.451 128.778 118.009 126.795C128.685 148.865 111.008 154.725 109.273 155.08C104.79 157.335 77.501 154.894 80.4141 119.781C82.7518 138.178 92.0001 148.003 106.744 144.27C117.906 141.446 117.857 121.353 100.651 127.945L96.7417 115.757C96.5752 115.241 102.279 117.209 108.124 115.644C112.871 114.374 116.793 105.099 104.33 105.065C98.8689 105.052 96.2056 108.822 92.142 110.7Z" fill="#694419"/>
<path d="M220.78 108.217C211.231 96.3671 208.293 89.0038 197.055 87.8729C198.457 85.9953 200.183 84.3993 201.87 82.7836C199.263 82.7934 196.631 82.8277 194.071 82.2843C199.801 74.987 198.8 69.4841 198.227 63.707C196.443 46.295 195.51 46.9829 200.854 34.4716C190.849 38.5498 189.584 38.8852 178.372 37.3454C167.222 35.8497 160.662 34.0701 152.745 40.4371C152.4 38.1263 152.51 35.7885 152.542 33.4606C150.674 35.2794 148.882 37.223 146.647 38.6085C146.03 32.6797 143.705 28.4889 139.113 24.6921C128.369 15.7891 126.496 14.8784 123.727 11.6301C120.1 7.43677 118.722 2.29615 117.698 0H117.603C116.2 3.77958 114.609 7.59099 112.031 10.7415C107.363 16.5136 95.2435 23.0031 91.202 28.9295C89.2608 31.654 88.2401 34.9342 87.8655 38.2365C85.9806 36.8558 84.4286 35.1031 82.7983 33.4483C82.791 36.0627 82.8253 38.6991 82.2818 41.2719C75.1951 35.3724 68.691 36.5915 63.9322 37.0541C46.2754 38.8607 47.1983 39.7958 34.4887 34.4495C37.3797 41.688 39.0834 44.8458 37.7151 54.2801C35.5731 69.1585 34.2708 74.6517 40.4273 82.5682C38.1214 82.8987 35.7885 82.791 33.4679 82.7641C35.3039 84.6196 37.2132 86.4433 38.6232 88.6586C31.4655 89.3 27.5244 92.612 23.6591 97.4442C12.0413 111.823 12.1049 113.108 0 117.588V117.647C7.17729 120.582 10.8712 122.136 15.8209 128.714C24.9785 140.814 26.3102 142.18 28.3322 143.668C31.1816 145.866 34.7017 147.071 38.2658 147.426C36.8485 149.289 35.1301 150.885 33.4581 152.513C36.0701 152.505 38.7065 152.478 41.2719 153.027C35.3479 160.101 36.5939 166.688 37.0786 171.584C38.846 188.71 39.8154 188.419 34.4471 200.817C46.3709 195.909 46.3586 196.604 63.1856 198.739C68.7816 199.39 75.1045 200.852 82.5682 194.857C82.8914 197.175 82.813 199.52 82.7592 201.853C84.5927 199.99 86.4408 198.098 88.6611 196.688C89.2241 202.315 91.4321 206.653 95.9902 210.435C112.225 223.852 112.428 222.129 117.515 235H117.74C120.078 229.573 121.448 225.113 127.97 220.07C139.906 210.651 146.322 207.875 147.431 197.04C149.289 198.462 150.899 200.164 152.515 201.85C152.52 199.238 152.468 196.6 153.032 194.032C160.61 200.333 167.34 198.565 173.148 198.066C188.211 196.702 187.953 195.238 200.834 200.864C198.756 195.662 196.374 191.275 197.307 183.298C199.162 167.758 201.745 161.264 194.859 152.745C197.17 152.4 199.508 152.508 201.836 152.532C200.002 150.679 198.095 148.865 196.688 146.655C201.823 146.07 206.107 144.312 209.931 139.894C222.973 124.716 220.853 123.28 235 117.799V117.564C230.829 115.681 225.725 114.298 220.78 108.217ZM196.622 84.9011C192.497 89.5154 192 93.1848 189.028 103.18C188.142 106.005 187.165 110.328 181.721 112.991C179.643 110.697 177.929 108.107 175.951 105.733C176.189 104.602 176.6 103.515 176.896 102.399C178.989 95.0551 179.413 94.8837 184.331 90.0442C175.861 90.054 176.277 89.6207 166.916 84.2916C166.659 81.1949 166.05 78.1179 166.116 75.0017C177.405 71.2172 183.768 83.8779 196.622 84.9011ZM164.745 164.688C160.231 163.269 157.332 164.047 152.317 164.544C154.04 161.347 154.052 157.426 152.65 154.111C153.254 153.497 153.854 152.877 154.459 152.258C157.829 153.617 161.768 153.465 164.941 151.646C164.412 156.672 163.325 159.599 164.745 164.688ZM116.607 168.172C117.471 168.16 118.33 168.172 119.192 168.135C120.807 171.506 123.04 173.939 127.042 175.126C123.162 178.279 120.163 179.711 117.691 184.211C115.407 179.763 112.237 178.059 109.023 175.315C112.492 174.272 115.285 171.516 116.607 168.172ZM92.2179 179.165C91.8238 174.262 89.7235 171.724 86.9427 166.385C85.4347 163.465 83.3981 160.86 84.8448 156.052C92.9988 163.092 103.488 167.359 114.237 168.052C113.552 169.34 112.697 170.566 111.549 171.484C107.424 174.899 98.0366 174.338 92.2179 179.165ZM121.612 168.015C132.352 167.2 142.787 162.826 150.87 155.7C153.805 164.238 144.028 169.746 143.166 179.09C138.146 175.41 136.694 175.883 130.905 173.986C127.48 172.842 124.117 172.615 121.612 168.015ZM150.429 151.369C137.732 163.775 119.24 167.753 102.83 162.297C84.1741 156.14 70.9822 138.599 70.6371 118.673C69.9859 93.9829 88.8863 73.3567 112.457 70.9064C122.335 69.8048 132.557 71.8831 141.147 76.9013C168.206 92.4456 172.769 129.749 150.429 151.369ZM70.5661 70.6248C75.5549 72.0911 78.2966 71.183 82.9844 70.7644C80.4973 75.5696 82.0884 79.4936 82.6466 81.2537C81.8706 81.9195 81.2072 82.6906 80.4973 83.4226C76.7275 81.7629 74.0838 81.709 70.3654 83.6478C70.8819 79.3419 71.9516 74.8842 70.5661 70.6248ZM71.4694 85.5816C74.8451 83.8632 76.5855 84.3038 78.9502 85.1704C72.1058 93.2974 67.9223 103.628 67.2516 114.237C59.1441 110.23 62.3166 99.8799 56.1479 92.2106C61.0535 91.863 63.3496 89.7994 71.4694 85.5816ZM67.1366 116.616C67.1268 117.471 67.1341 118.33 67.1659 119.187C63.6556 120.873 61.4403 123.052 60.1722 127.032C57.5921 123.806 55.367 120.056 51.6339 118.009C51.4503 117.948 50.9632 117.595 51.4307 117.495C55.1271 115.637 57.4746 112.119 59.9813 108.976C61.0045 112.477 63.7854 115.275 67.1366 116.616ZM63.663 124.78C64.5614 123.404 65.8906 122.376 67.3153 121.593C68.0374 132.359 72.5342 142.745 79.5744 150.892C77.1951 151.663 74.5244 151.666 72.2503 150.557C64.6421 146.667 61.5578 143.634 56.1797 143.159C57.4208 141.661 58.4514 139.979 59.1196 138.148C60.608 134.102 61.9788 127.204 63.663 124.78ZM70.7644 152.307C73.9418 154.042 77.8756 154.055 81.1729 152.64C81.8094 153.22 82.3895 153.864 83.0407 154.432C81.6919 157.815 81.8485 161.744 83.6429 164.936C78.5634 164.368 75.4521 163.349 70.6199 164.735C72.0716 160.106 71.2099 157.085 70.7644 152.307ZM119.245 67.161C118.198 67.1243 117.15 67.1194 116.102 67.1635C114.327 63.2199 111.733 61.3056 108.266 60.1698C112.807 56.6032 115.297 55.2862 117.61 51.0978C119.72 55.0757 121.921 56.4759 126.32 59.9862C122.44 61.1906 120.697 63.3594 119.245 67.161ZM135.367 59.7879C138.141 59.0829 140.878 58.0083 143.086 56.1381C143.862 65.4891 153.054 71.3152 150.461 79.2072C142.388 72.3629 132.158 68.0203 121.581 67.3055C123.59 62.5247 125.353 62.3558 135.367 59.7879ZM113.711 67.3079C102.959 68.0496 92.5337 72.4975 84.4335 79.5842C82.5144 73.9467 85.4201 71.2711 90.1201 62.6495C91.2314 60.6545 91.8703 58.4342 92.1787 56.1797C98.7563 62.0792 109.517 59.6288 113.711 67.3079ZM164.542 82.9868C161.34 81.2659 157.421 81.2439 154.101 82.6637C153.506 82.0395 152.882 81.4446 152.258 80.8473C153.617 77.4741 153.47 73.5256 151.641 70.3556C157.056 71.0116 160.106 71.9149 164.688 70.5612C163.232 75.1951 164.089 78.2036 164.542 82.9868ZM179.119 92.1445C175.822 96.1419 175.643 99.2092 173.934 104.56C172.669 108.418 172.537 111.101 168.013 113.698C167.215 102.952 162.826 92.5043 155.692 84.4262C158.177 83.6061 160.97 83.6429 163.315 84.8668C171.496 89.2119 174.049 91.6916 179.119 92.1445ZM156.067 150.447C163.088 142.288 167.371 131.815 168.052 121.069C176.076 124.971 173.156 135.854 179.161 143.076C173.932 143.597 171.731 145.609 166.598 148.256C163.665 149.732 160.911 151.972 156.067 150.447ZM168.162 118.675C168.184 117.818 168.167 116.959 168.145 116.102C171.65 114.479 173.932 112.117 175.122 108.293C178.284 112.034 179.41 114.895 184.196 117.61C180.044 119.794 178.482 122.408 175.322 126.298C174.279 122.81 171.501 120.034 168.162 118.675ZM162.649 39.2768C165.442 38.8068 168.26 39.3111 171.038 39.6391C184.132 41.2792 187.594 42.3367 195.106 40.114C192.688 47.6389 193.723 51.2692 195.265 66.035C195.811 71.276 195.569 76.2502 190.688 81.1998C181.131 76.9233 175.677 70.03 166.429 72.593C166.909 70.522 167.854 68.6029 168.681 66.6543C166.505 67.5037 164.375 68.5441 162.042 68.8893C163.036 65.4328 162.737 61.6361 161.144 58.4073C157.377 50.8799 154.982 47.5557 153.624 43.9132C156.113 41.5656 159.225 39.7615 162.649 39.2768ZM150.329 38.6477C151.152 51.5262 163.403 58.1478 159.678 69.0435C156.559 68.9137 153.489 68.2895 150.39 67.9713C148.794 64.767 146.596 61.805 145.68 58.2996C145.073 55.9153 145.252 53.438 145.279 51.0097C139.237 56.7574 140.3 56.1381 128.88 59.2396C126.535 57.2127 123.94 55.4722 121.767 53.2495C123.216 50.2606 125.791 47.8054 128.959 46.7405C135.216 44.699 141.864 43.5019 145.433 41.8006C147.21 41.0051 148.838 39.8986 150.329 38.6477ZM95.574 28.621C100.105 24.2026 110.435 17.7988 114.499 12.7365C115.701 11.2947 116.697 9.6962 117.595 8.0512C121.27 15.2774 125.233 17.4316 134.151 24.724C138.288 28.1755 143.223 31.2477 143.556 40.1997C140.988 41.2278 138.258 41.7443 135.607 42.513C129.213 44.3734 123.967 44.8899 120.298 51.2741C119.123 49.514 118.491 47.4798 117.686 45.5435C116.734 47.6756 115.924 49.891 114.567 51.8175C110.027 43.4089 100.795 44.2583 90.9744 40.114C90.9768 35.8914 92.541 31.6099 95.574 28.621ZM84.8962 38.6918C86.4408 40.0185 88.1128 41.2156 89.9732 42.0626C93.1995 43.617 95.9902 43.9523 105.539 47.0171C108.805 48.0477 111.515 50.503 112.998 53.5751C110.709 55.673 108.093 57.3718 105.713 59.3644C104.808 59.1564 103.934 58.8357 103.038 58.5933C95.5079 56.3241 95.6254 56.6717 90.0613 50.973C89.9854 59.4942 89.7357 58.8455 84.294 68.3874C81.1998 68.642 78.1253 69.254 75.0115 69.1879C72.7912 62.6202 75.8414 58.9091 78.9159 53.3328C81.5572 48.5128 84.3503 45.2106 84.8962 38.6918ZM40.1042 40.1997C46.9902 42.4028 51.3132 41.617 57.0781 40.9683C59.974 40.6256 62.8772 40.3637 65.7755 40.0651C70.0153 39.6391 75.5158 39.1177 81.2023 44.5937C79.8608 47.6291 78.3578 49.5801 74.3236 56.9704C72.1107 60.8503 71.4669 64.4879 72.5979 68.8721C70.5171 68.4095 68.6127 67.4328 66.6543 66.6274C67.5307 68.7914 68.5245 70.9406 68.8942 73.2661C65.5968 72.3213 61.991 72.5367 58.8577 73.9516C54.2703 76.0959 47.3966 80.392 43.9156 81.6772C32.8486 69.9664 45.0123 56.2164 40.1042 40.1997ZM56.9802 77.3933C59.4232 76.0837 63.7878 73.577 69.0361 75.692C68.926 78.6711 68.3116 81.6062 68.0252 84.5731C68.057 85.0259 67.538 85.1336 67.2369 85.3295C64.5222 86.666 62.0131 88.453 59.1196 89.3955C56.5004 90.2498 53.722 90.0613 51.0121 90.0344C57.0609 96.2105 56.2874 95.7992 59.2371 106.406C57.2347 108.778 55.4698 111.363 53.2397 113.539C42.6158 108.323 47.0416 95.0085 38.6844 84.9819C44.743 84.5633 47.1811 82.7494 56.9802 77.3933ZM16.942 125.003C14.499 122.014 11.4807 119.507 8.05854 117.715C14.8809 114.146 16.4892 111.414 25.6982 99.9729C27.309 97.995 28.927 95.9461 31.0836 94.5263C33.7323 92.6683 36.9929 91.8507 40.1972 91.7504C41.4408 94.8152 41.8496 97.8971 44.4958 106.666C45.6071 110.183 48.0869 113.228 51.3181 115.008C49.5018 116.127 47.492 116.864 45.5043 117.613C47.6242 118.575 49.9032 119.302 51.749 120.763C48.6181 122.494 46.1751 125.387 45.0123 128.768C42.2878 136.914 41.6415 141.125 40.0381 144.378C29.3089 143.92 27.3604 137.989 16.942 125.003ZM38.7016 150.402C42.7333 145.717 43.2571 142.231 44.7969 137.032C46.8947 130.053 47.257 128.352 48.8506 126.195C50.0501 124.511 51.7539 123.255 53.5702 122.303C55.6754 124.614 57.4428 127.208 59.3816 129.656C56.4196 138.506 57.952 138.559 50.9974 145.245C58.1796 145.272 58.2041 145.002 68.3262 150.968C68.4927 151.289 68.4511 151.666 68.5074 152.016C68.7253 154.772 69.2687 157.509 69.1977 160.282C58.1307 164.135 51.5996 151.528 38.7016 150.402ZM73.0972 195.956C71.0997 196.352 68.9921 196.521 55.2079 194.504C49.7123 193.738 45.7638 193.498 40.1923 195.202C42.7112 187.449 41.4799 183.846 39.9035 167.785C39.3576 162.294 40.8582 158.157 44.5252 154.128C45.9841 154.652 47.3035 155.484 48.6523 156.236C51.6682 158.037 54.7354 159.749 57.8124 161.443C61.1661 163.271 65.1954 163.736 68.877 162.706C68.3972 164.784 67.4621 166.71 66.6201 168.661C68.7767 167.763 70.9406 166.794 73.2612 166.407C72.3751 169.548 72.5024 172.977 73.7655 175.998C75.4619 179.986 80.2819 187.63 81.6796 191.378C79.3076 193.638 76.3505 195.383 73.0972 195.956ZM84.977 196.648C84.5021 188.58 80.2941 184.906 75.9564 175.472C74.6541 172.588 74.6027 169.229 75.6406 166.258C78.7642 166.414 81.8534 166.98 84.9549 167.352C86.5216 170.627 88.8055 173.604 89.6647 177.18C90.2253 179.511 90.054 181.924 90.027 184.301C95.8164 178.553 95.7552 178.918 106.426 176.081C108.785 178.071 111.343 179.831 113.527 182.025C108.675 192.543 94.5557 188.414 84.977 196.648ZM141.333 204.788C139.561 207.27 137.703 208.58 126.77 216.974C123.052 219.696 119.833 223.142 117.706 227.252C114.026 219.759 108.727 216.937 102.389 211.569C97.7306 207.627 91.9609 204.467 91.7602 195.101C94.2179 194.122 96.8176 193.596 99.3609 192.893C106.279 190.947 111.473 190.269 115.015 183.998C116.149 185.807 116.859 187.834 117.635 189.811C118.521 187.66 119.36 185.457 120.717 183.545C121.967 185.537 123.49 187.422 125.512 188.678C129.284 191.256 139.984 193.141 144.373 195.251C144.239 198.617 143.357 202.044 141.333 204.788ZM150.407 196.622C147.825 194.272 144.635 192.671 141.289 191.726C129.137 188.223 125.607 187.927 122.317 181.792C123.703 180.358 129.541 176.015 129.691 175.92C133.331 177.219 137.36 177.677 140.586 179.954C142.351 181.165 143.761 182.796 145.25 184.318C145.333 175.163 145.83 176.282 150.992 166.936C154.089 166.649 157.178 166.05 160.299 166.116C161.352 169.251 161.293 172.789 159.805 175.775C154.275 186.651 151.174 188.676 150.407 196.622ZM196.024 162.605C196.573 166.072 195.775 169.543 195.434 172.989C194.475 181.819 192.715 187.18 195.199 195.111C191.679 193.929 187.934 193.452 184.228 193.718C168.407 194.862 162.084 198.22 154.106 190.734C158.569 180.639 165.222 175.991 162.701 166.427C164.777 166.916 166.72 167.824 168.661 168.693C167.78 166.522 166.779 164.365 166.412 162.032C169.92 163.07 173.782 162.711 177.05 161.075C180.137 159.496 183.187 157.839 186.208 156.14C187.912 155.225 189.594 154.224 191.447 153.641C193.723 156.153 195.544 159.205 196.024 162.605ZM175.814 159.193C172.852 160.642 169.349 160.74 166.255 159.663C166.4 156.552 167.014 153.487 167.325 150.39C170.977 148.596 174.348 145.928 178.495 145.401C180.421 145.12 182.372 145.277 184.311 145.284C179.55 140.469 178.766 140.143 176.086 128.841C178.132 126.523 179.817 123.894 182.069 121.762C183.949 122.756 185.714 124.056 186.938 125.818C189.652 129.534 190.964 139.323 193.182 144.728C194.034 146.767 195.238 148.642 196.656 150.331C189.647 150.672 186.666 153.751 175.814 159.193ZM208.318 136.887C204.812 141.196 200.972 143.335 195.101 143.548C193.838 140.239 193.202 136.738 192.171 133.355C190.72 128.474 190.343 124.246 184.017 120.254C185.838 119.167 187.838 118.45 189.802 117.676C187.645 116.763 185.417 115.938 183.503 114.553C186.541 112.908 188.952 110.154 190.147 106.908C191.882 102.152 193.669 94.2962 195.238 90.9401C205.035 91.2436 208.11 97.2924 211.659 101.628C217.172 108.396 219.625 113.542 227.25 117.598C220.085 121.162 218.014 125.04 208.318 136.887Z" fill="#694419"/>
</g>
<defs>
<clipPath id="clip0_136_28">
<rect width="235" height="235" fill="white"/>
</clipPath>
</defs>
</svg>
