<svg width="270" height="202" viewBox="0 0 270 202" fill="none" xmlns="http://www.w3.org/2000/svg">
<mask id="mask0_135_41" style="mask-type:luminance" maskUnits="userSpaceOnUse" x="0" y="0" width="270" height="202">
<path d="M0 0H270V201.508H0V0Z" fill="white"/>
</mask>
<g mask="url(#mask0_135_41)">
<path d="M254.169 147.787C251.156 150.408 247.924 152.762 244.49 154.769C241.057 156.775 237.437 158.457 233.711 159.816C226.265 162.538 218.407 164.221 210.398 164.443C202.649 164.698 194.826 163.622 187.133 161.434C186.498 160.852 185.871 160.265 185.249 159.663C182.648 157.183 180.096 154.611 177.313 152.212C174.53 149.83 171.485 147.638 168.087 146.012C166.805 145.397 165.478 144.851 164.127 144.386C165.365 144.216 166.599 144.014 167.824 143.779C173.098 142.764 178.243 141.122 183.21 139.092C188.177 137.065 192.966 134.622 197.528 131.835C199.821 130.436 202.014 128.988 204.242 127.394C204.558 127.16 204.865 126.917 205.177 126.674C208.829 126.145 212.522 126.201 216.182 126.553C221.929 127.144 227.645 128.41 233.42 129.672C239.2 130.921 245.146 131.937 251.221 132.272C254.25 132.434 257.312 132.434 260.349 132.046C262.732 131.738 265.122 131.148 267.326 130.108C266.089 133.296 264.406 136.301 262.38 139.027C260.002 142.287 257.166 145.163 254.169 147.787ZM201.108 174.49C203.17 175.817 205.375 177.006 207.696 177.944C204.481 180.367 201.091 182.478 197.496 183.943C192.885 185.799 188.015 186.616 183.307 185.746C178.599 184.913 174.154 182.389 170.453 178.915C169.523 178.054 168.637 177.131 167.804 176.149C166.959 175.182 166.158 174.163 165.426 173.091C164.718 172.067 164.047 171 163.452 169.895C163.634 169.167 163.792 168.431 163.897 167.687C164.043 166.797 164.095 165.661 164.002 164.678C163.824 162.647 163.149 160.706 162.166 159.064C161.183 157.41 159.929 156.026 158.57 154.853C157.231 153.66 155.747 152.698 154.246 151.848C151.213 150.17 148.014 149.033 144.806 148.107C141.93 147.33 139.035 146.679 136.086 146.424C139.556 145.971 142.978 145.632 146.367 145.599C149.858 145.559 153.3 145.866 156.633 146.574C159.966 147.278 163.173 148.406 166.259 149.866C169.345 151.31 172.379 152.985 175.368 154.858C178.361 156.714 181.281 158.781 184.104 160.985C186.935 163.185 189.621 165.58 192.404 167.877C195.166 170.203 198.009 172.476 201.108 174.49ZM158.967 166.898C158.845 167.61 158.675 168.306 158.465 168.994C157.648 171.76 156.164 174.361 154.343 176.808C152.507 179.255 150.299 181.512 147.949 183.684C145.591 185.852 143.067 187.906 140.588 190.123C139.346 191.235 138.108 192.38 136.939 193.654C136.207 194.467 135.479 195.32 134.836 196.287C134.116 195.49 133.34 194.81 132.579 194.131C131.285 193.043 129.966 192.036 128.656 191.033C126.039 189.031 123.426 187.049 121.032 184.84C118.633 182.64 116.465 180.197 114.714 177.548C112.971 174.899 111.656 172.055 111.001 169.151C110.916 168.791 110.847 168.427 110.779 168.063C110.726 167.719 110.665 167.388 110.609 166.955C110.532 166.28 110.5 165.636 110.556 164.981C110.669 163.683 111.058 162.401 111.697 161.167C112.975 158.692 115.086 156.399 117.497 154.396C119.916 152.39 122.662 150.615 125.622 149.288C128.571 147.949 131.75 146.995 135.002 146.825C138.242 147.019 141.421 147.982 144.365 149.324C147.322 150.655 150.06 152.431 152.467 154.449C154.861 156.459 156.94 158.785 158.129 161.26C158.728 162.49 159.072 163.752 159.12 165.001C159.14 165.661 159.088 166.174 158.967 166.898ZM108.008 159.157C107.066 160.795 106.431 162.716 106.321 164.698C106.261 165.681 106.338 166.692 106.528 167.63C106.597 168.011 106.702 168.484 106.811 168.945C106.839 169.038 106.867 169.127 106.896 169.22C106.22 170.571 105.428 171.857 104.574 173.091C103.842 174.163 103.041 175.182 102.196 176.149C101.367 177.131 100.477 178.054 99.5467 178.915C95.8459 182.389 91.4008 184.913 86.6928 185.746C81.9849 186.616 77.1151 185.799 72.5042 183.943C68.9085 182.478 65.5151 180.367 62.2996 177.94C64.5727 177.018 66.7285 175.857 68.7427 174.555C71.7924 172.557 74.5832 170.308 77.285 167.99C80.0111 165.705 82.628 163.323 85.3905 161.127C88.1489 158.926 91.0044 156.86 93.9368 155.007C96.857 153.147 99.8298 151.488 102.859 150.061C105.885 148.629 109.039 147.529 112.324 146.853C115.6 146.178 118.989 145.895 122.431 145.947C125.534 145.996 128.668 146.295 131.843 146.691C129.611 147.027 127.402 147.549 125.21 148.143C122.007 149.074 118.807 150.21 115.794 151.901C112.817 153.604 109.909 155.844 108.008 159.157ZM60.5806 163.57C52.5116 163.424 44.5679 161.879 37.0044 159.307C33.2186 158.024 29.538 156.419 26.0313 154.489C22.5246 152.552 19.2201 150.263 16.13 147.703C13.0521 145.13 10.148 142.295 7.71313 139.047C6.47951 137.437 5.38746 135.718 4.41675 133.931C3.77365 132.685 3.17504 131.407 2.66542 130.1C4.86975 131.148 7.26418 131.742 9.64647 132.054C12.688 132.45 15.7498 132.45 18.7833 132.284C24.8584 131.953 30.804 130.925 36.5797 129.672C42.3555 128.41 48.0665 127.144 53.818 126.549C57.4865 126.193 61.1873 126.141 64.8437 126.679C65.4261 127.127 66.0166 127.564 66.6274 127.981C68.8277 129.514 71.121 131.018 73.4507 132.39C78.1263 135.156 83.0405 137.53 88.1246 139.472C93.2047 141.409 98.4546 142.946 103.806 143.88C104.558 144.01 105.314 144.131 106.075 144.24C104.34 144.77 102.649 145.429 101.023 146.21C97.67 147.82 94.677 150.004 91.963 152.386C89.245 154.777 86.7616 157.341 84.2337 159.816C83.9708 160.075 83.6998 160.326 83.4329 160.585C75.8775 162.688 68.2007 163.74 60.5806 163.57ZM30.4278 119.754C27.8959 116.749 26.0515 113.218 24.6157 109.521C23.1758 105.828 22.0878 101.909 21.6955 97.8807C21.3557 94.5034 21.1454 90.9845 21.7602 87.5628C23.4913 89.9572 25.4812 92.1413 27.6411 94.1839C30.3227 96.7077 33.3117 98.9889 36.4301 100.704C39.5606 102.415 42.7114 103.802 45.6357 105.525C47.4598 106.56 49.1869 107.737 50.8735 109.04C53.187 113.962 56.3054 118.577 60.2045 122.533C60.6656 123.006 61.1347 123.467 61.6161 123.916C60.5038 123.702 59.3834 123.516 58.255 123.39C56.722 123.241 55.1851 123.184 53.6522 123.18C48.0503 123.188 42.5698 124.086 37.2228 125.182C34.5372 123.815 32.2762 121.954 30.4278 119.754ZM33.9628 73.7786C33.797 71.2507 33.8132 68.6986 33.886 66.1262C33.9426 63.5578 33.9831 60.9531 34.1853 58.3524C34.4927 53.9559 35.4311 49.5674 37.1945 45.5349C38.2057 47.2134 39.4393 48.7464 40.863 50.069C42.8327 51.9052 45.1625 53.3006 47.6176 54.3684C50.0767 55.4281 52.7178 56.1238 55.4075 56.2815C57.1063 56.3786 58.8414 56.2411 60.4755 55.8204C60.2651 58.2755 60.2126 60.7509 60.346 63.2221C60.5806 67.3841 61.3491 71.5703 62.8537 75.4369C57.3409 71.3438 52.3862 66.559 48.7501 61.0138L46.7965 58.0369L45.3283 61.0582C44.0016 63.7762 43.4556 66.5873 43.1927 69.3498C42.946 72.1203 42.9824 74.8626 43.1725 77.5685C43.5648 82.9762 44.3778 88.2908 45.6235 93.5367C46.4163 96.8412 47.3547 100.134 48.5236 103.361C48.2404 103.106 47.9533 102.86 47.658 102.621C45.4537 100.849 43.0673 99.3812 40.6567 98.1152C38.7072 95.0818 37.2633 91.8865 36.3047 88.5335C35.6009 86.1633 35.1196 83.7285 34.7596 81.2693C34.3956 78.8061 34.1246 76.3106 33.9628 73.7786ZM64.5606 63.2666C64.965 58.1744 65.867 53.1469 66.8175 48.0911C67.3028 45.5673 67.8408 43.0353 68.4758 40.5196C69.127 38.0078 69.7903 35.484 70.4212 32.9359C71.0684 30.3918 71.7277 27.8356 72.5568 25.3319C73.2282 23.3096 73.9967 21.3277 74.8623 19.3823C76.201 21.8616 77.6409 24.3046 79.3154 26.606C81.2649 29.3321 83.5987 31.7589 86.2156 33.7974C88.8163 35.8601 91.5868 37.6883 94.5152 39.2415C95.9793 40.0099 97.4839 40.7137 99.033 41.3083C99.8258 41.6076 100.627 41.8907 101.444 42.1334C101.055 42.7805 100.691 43.4398 100.348 44.1112C99.6316 45.4904 99.0452 46.9425 98.5679 48.4268C98.0785 49.9031 97.7428 51.436 97.5729 52.9811C97.3221 55.0439 97.3788 57.1228 97.7185 59.129C96.764 58.3847 95.8459 57.6163 94.9763 56.7992C93.1764 55.149 91.5828 53.337 90.2804 51.3713L87.882 47.7554L86.4785 51.8769C85.6736 54.243 84.9334 56.6941 84.355 59.1734C83.7847 61.6609 83.3317 64.1767 82.992 66.7046C82.3165 71.7604 81.9282 76.8121 81.6734 81.8598C81.4712 86.9116 81.4874 91.9957 82.0617 97.1041C82.361 99.6522 82.8019 102.204 83.4612 104.712C84.1124 107.22 84.9981 109.675 86.0619 112.057C88.1934 116.818 91.0287 121.283 94.4262 125.259C97.8358 129.231 101.844 132.636 106.156 135.496C110.483 138.335 115.07 140.697 119.827 142.562C120.191 142.707 120.559 142.845 120.923 142.982C118.172 142.651 115.369 142.614 112.562 142.914C104.691 141.239 97.1442 138.529 89.8962 135.237C85.1559 133.057 80.5409 130.614 76.0231 127.997C73.754 126.683 71.5376 125.352 69.3009 123.932C67.2058 122.593 65.1956 121.036 63.335 119.317C59.6221 115.867 56.4551 111.778 53.6886 107.386C50.9463 102.977 48.6773 98.1759 47.1929 93.1201C45.7125 88.0724 44.8915 82.782 45.0897 77.5361C45.1948 74.9152 45.5143 72.3145 46.1089 69.823C46.4203 68.5449 46.7924 67.287 47.2495 66.0938C48.7137 68.2092 50.4084 70.1425 52.2406 71.8898C54.9303 74.4743 57.8909 76.7231 61.0094 78.6767C62.5625 79.6596 64.1763 80.5453 65.8104 81.3745C67.4403 82.2117 69.1148 82.96 70.8176 83.6193C74.2151 84.9499 77.7542 85.9854 81.362 86.4141L81.4833 85.953C78.1465 84.6304 74.9755 83.057 71.9056 81.33C70.3727 80.4563 68.8762 79.5423 67.3958 78.5999C66.4777 78.0053 65.5717 77.3824 64.6779 76.7515C64.2087 72.177 64.1925 67.7076 64.5606 63.2666ZM108.692 39.2374C110.589 37.114 112.574 35.031 114.548 32.8914C118.496 28.6041 122.435 24.1226 126.403 19.722C128.381 17.5056 130.339 15.2648 132.114 12.8461C133.178 11.3779 134.189 9.85309 135.083 8.23119C135.73 10.0594 136.559 11.8228 137.538 13.473C139.095 16.1223 140.98 18.5208 142.946 20.7898C146.889 25.3158 151.156 29.3806 155.306 33.3727C159.456 37.3607 163.48 41.3689 166.506 46.0203C167.242 47.1932 167.942 48.3864 168.532 49.6362C169.115 50.89 169.624 52.1803 170.021 53.519C170.643 55.6142 170.975 57.8185 171.076 60.0794C170.627 60.4071 170.17 60.7266 169.713 61.0461C168.682 61.758 167.61 62.4253 166.53 63.0846C165.454 63.756 164.35 64.3951 163.234 65.0139C161.64 65.9442 159.994 66.7935 158.364 67.7036C156.604 65.1716 154.752 62.7408 152.9 60.3585C149.449 55.9135 146.02 51.5695 143.083 46.9505C140.155 42.3437 137.712 37.4335 136.264 32.1512L134.788 26.7759L133.736 32.1512C132.688 37.5184 130.646 42.7158 127.859 47.5127C125.097 52.338 121.719 56.8073 118.281 61.2443C116.554 63.4567 114.815 65.6772 113.153 67.9705C113.04 68.1202 112.934 68.2779 112.821 68.4316C110.969 67.376 109.096 66.4174 107.292 65.3617C106.172 64.747 105.072 64.1039 103.992 63.4365C102.912 62.7732 101.84 62.1099 100.809 61.394C100.182 60.9571 99.5629 60.5122 98.9521 60.0592C99.0775 57.7861 99.4254 55.5818 100.048 53.4786C100.453 52.1358 100.962 50.8374 101.541 49.5796C102.127 48.3217 102.827 47.1164 103.563 45.9353C105.056 43.5814 106.811 41.377 108.692 39.2374ZM170.967 41.3083C172.516 40.7137 174.017 40.0099 175.485 39.2415C178.413 37.6883 181.184 35.8601 183.784 33.7974C186.401 31.7589 188.735 29.3321 190.685 26.606C192.359 24.3046 193.803 21.8616 195.138 19.3823C196.003 21.3277 196.776 23.3096 197.443 25.3319C198.268 27.8356 198.932 30.3918 199.579 32.9359C200.214 35.484 200.873 38.0078 201.52 40.5196C202.159 43.0353 202.697 45.5673 203.187 48.0911C204.133 53.1469 205.035 58.1744 205.439 63.2666C205.808 67.7036 205.791 72.1648 205.322 76.7393C204.424 77.3703 203.522 77.9972 202.6 78.5918C201.12 79.5342 199.623 80.4483 198.09 81.3259C195.041 83.0368 191.894 84.6061 188.581 85.9287C188.585 84.4969 188.569 83.0651 188.533 81.6333C188.355 76.5735 188.035 71.5096 187.421 66.4295C186.822 61.3616 185.702 56.3058 184.043 51.5331L182.62 47.4359L180.245 51.0235C178.943 52.9851 177.345 54.8012 175.55 56.4514C174.506 57.4262 173.386 58.3402 172.233 59.2139C172.565 57.2037 172.629 55.1248 172.395 53.0499C172.075 49.9881 171.109 46.9789 169.758 44.2083C169.414 43.4964 169.042 42.7967 168.649 42.1091C169.434 41.8705 170.203 41.5954 170.967 41.3083ZM214.592 56.2815C217.282 56.1238 219.923 55.4281 222.382 54.3684C224.838 53.3006 227.167 51.9052 229.141 50.069C230.557 48.7464 231.794 47.2134 232.801 45.5349C234.569 49.5674 235.507 53.9559 235.815 58.3524C236.017 60.9531 236.053 63.5578 236.114 66.1262C236.187 68.6986 236.203 71.2507 236.037 73.7786C235.879 76.3106 235.604 78.8061 235.24 81.2693C234.88 83.7285 234.399 86.1633 233.695 88.5335C232.737 91.8865 231.293 95.0818 229.343 98.1152C226.933 99.3812 224.55 100.849 222.342 102.621C222.071 102.839 221.812 103.07 221.553 103.296C222.755 99.9556 223.705 96.5419 224.494 93.112C225.687 87.9308 226.451 82.6769 226.811 77.342C226.985 74.6725 227.01 71.9747 226.763 69.2446C226.496 66.5185 225.954 63.7479 224.656 61.0663L223.208 58.0652L221.27 61.0218C219.422 63.8369 217.209 66.4336 214.795 68.8725C212.441 71.2265 209.868 73.4025 207.154 75.4208C208.655 71.5581 209.419 67.38 209.654 63.2221C209.787 60.7509 209.735 58.2755 209.525 55.8204C211.159 56.2411 212.894 56.3786 214.592 56.2815ZM135.726 146.348L135.742 146.404C135.665 146.396 135.584 146.392 135.508 146.388C135.58 146.372 135.653 146.36 135.726 146.348ZM133.024 146.53C133.004 146.534 132.98 146.538 132.951 146.538L132.959 146.517C132.984 146.522 133.004 146.526 133.024 146.53ZM171.432 63.9097C173.802 62.6801 176.067 61.2039 178.183 59.4768C179.258 58.587 180.286 57.6243 181.248 56.5849C182.434 60.043 183.631 63.4729 184.666 66.9958C186.062 71.7563 187.008 76.6948 187.101 81.6738C187.243 86.6487 186.62 91.6317 185.305 96.3801C184.003 101.133 182.13 105.65 179.865 109.909C177.58 114.16 174.728 118.076 171.448 121.594C168.188 125.129 164.576 128.357 160.69 131.285C156.815 134.234 152.637 136.843 148.321 139.265C147.993 139.443 147.658 139.617 147.33 139.799C148.078 139.185 148.814 138.562 149.538 137.915C153.733 134.084 157.494 129.712 160.56 124.822C163.614 119.932 165.976 114.52 167.282 108.805C168.585 103.086 168.908 97.1405 168.168 91.2636C167.424 85.3827 165.442 79.6515 162.615 74.539C161.503 72.4924 160.281 70.5348 158.999 68.6379C160.73 68.1687 162.453 67.6591 164.16 67.0686C165.397 66.6237 166.623 66.1464 167.84 65.6327C169.058 65.111 170.251 64.5285 171.432 63.9097ZM134.824 37.1504C136.025 41.2436 137.724 45.2033 139.815 48.9001C142.622 53.9356 146.032 58.5223 149.312 63.0482C152.592 67.5742 155.783 72.0678 158.238 76.8566C160.698 81.6374 162.429 86.681 163.149 91.9391C163.893 97.189 163.731 102.609 162.781 107.883C162.307 110.524 161.66 113.145 160.831 115.722C159.982 118.29 158.991 120.834 157.802 123.297C155.436 128.224 152.402 132.923 148.628 136.996C146.954 138.829 145.11 140.515 143.128 142.008C140.446 143.375 137.728 144.689 134.974 145.992C133.679 145.785 132.446 145.345 131.257 144.774C131.164 144.73 131.075 144.685 130.986 144.641C129.793 144.046 128.648 143.322 127.56 142.562C125.295 140.948 123.216 139.071 121.343 137.025C117.566 132.952 114.528 128.248 112.142 123.33C107.401 113.469 105.193 102.589 106.297 91.8622C106.843 86.5233 108.364 81.2734 110.73 76.3106C111.895 73.8231 113.282 71.4247 114.759 69.0666C116.259 66.7207 117.865 64.4355 119.507 62.1624C122.803 57.6284 126.266 53.1672 129.242 48.3379C130.731 45.9272 132.102 43.4236 133.303 40.827C133.845 39.6217 134.355 38.3961 134.824 37.1504ZM89.2652 56.9206C90.2278 57.9641 91.2633 58.9348 92.3391 59.8246C94.4585 61.5517 96.7195 63.028 99.0897 64.2576C100.275 64.8723 101.464 65.4588 102.681 65.9806C103.899 66.4983 105.128 66.9715 106.362 67.4205C108.32 68.0919 110.293 68.6703 112.275 69.188C110.916 71.089 109.618 73.0506 108.417 75.0851C106.961 77.5563 105.682 80.1651 104.647 82.8831C103.62 85.6092 102.851 88.4445 102.386 91.3364C101.468 97.1203 101.662 103.058 102.908 108.765C104.137 114.476 106.459 119.9 109.497 124.79C112.542 129.684 116.304 134.056 120.49 137.886C122.047 139.282 123.657 140.608 125.347 141.826C123.956 141.106 122.577 140.378 121.218 139.617C116.91 137.199 112.744 134.594 108.89 131.637C105.019 128.701 101.432 125.469 98.2039 121.922C94.9601 118.395 92.1491 114.46 89.9205 110.193C87.7121 105.921 85.9041 101.387 84.6746 96.6228C83.4369 91.8703 82.8868 86.8792 83.1093 81.9205C83.2751 76.9537 84.2863 72.0354 85.7423 67.3032C86.8182 63.7884 88.0518 60.3747 89.2652 56.9206ZM157.3 142.736C154.469 142.339 151.634 142.291 148.839 142.542C149.13 142.428 149.421 142.323 149.708 142.21C154.469 140.341 159.072 137.987 163.412 135.152C167.735 132.301 171.764 128.907 175.206 124.96C178.632 121 181.511 116.559 183.704 111.823C184.792 109.448 185.714 107.001 186.401 104.498C187.097 101.994 187.57 99.4459 187.914 96.8978C188.371 93.3183 188.553 89.7469 188.577 86.1836L188.634 86.4141C192.246 85.9894 195.785 84.958 199.186 83.6273C200.893 82.9681 202.564 82.2198 204.194 81.3826C205.832 80.5575 207.442 79.6676 208.995 78.6848C212.109 76.7272 215.074 74.4824 217.759 71.8938C219.604 70.1344 221.303 68.1849 222.767 66.0574C222.775 66.0857 222.791 66.114 222.803 66.1464C223.244 67.287 223.604 68.4883 223.903 69.7138C224.502 72.1729 224.817 74.7372 224.935 77.3217C225.141 82.4948 224.348 87.7165 222.908 92.6995C221.46 97.6946 219.26 102.443 216.599 106.815C213.917 111.179 210.851 115.252 207.247 118.735C205.443 120.462 203.498 122.031 201.451 123.414C199.344 124.79 197.099 126.157 194.895 127.479C190.466 130.129 185.964 132.644 181.337 134.905C174.162 138.384 166.68 141.272 158.813 142.982C158.311 142.893 157.81 142.809 157.3 142.736ZM242.359 94.1839C244.519 92.1413 246.509 89.9613 248.24 87.5628C248.855 90.9845 248.644 94.5034 248.305 97.8807C247.912 101.909 246.828 105.828 245.384 109.521C243.948 113.218 242.104 116.749 239.576 119.754C237.724 121.954 235.463 123.815 232.777 125.182C227.43 124.082 221.95 123.184 216.348 123.18C214.815 123.184 213.278 123.241 211.745 123.39C210.633 123.512 209.525 123.694 208.424 123.908C209.116 123.253 209.796 122.585 210.447 121.894C214.075 118.059 217.007 113.659 219.211 108.971C220.874 107.701 222.573 106.544 224.36 105.525C227.289 103.802 230.439 102.415 233.57 100.704C236.688 98.9889 239.677 96.7077 242.359 94.1839ZM268.281 127.908C265.919 129.49 263.067 130.266 260.192 130.444C257.308 130.626 254.396 130.266 251.532 129.716C246.505 128.709 241.558 127.184 236.482 125.987C238.597 125.21 240.579 124.017 242.314 122.553C245.882 119.576 248.478 115.596 250.133 111.365C251.767 107.106 252.442 102.572 252.475 98.0829C252.471 93.5772 251.314 89.1119 249.498 85.0875L248.665 83.2431L247.884 84.9621C246.456 88.0926 244.094 90.8106 241.133 92.5943C239.042 93.8846 236.761 94.7784 234.476 95.7289C235.803 93.9857 236.919 92.0726 237.817 90.0705C238.957 87.5142 239.758 84.8165 240.252 82.0904C240.741 79.3602 240.887 76.5978 240.822 73.8636C240.745 71.1334 240.531 68.4235 240.114 65.7541C239.681 63.0846 238.978 60.4718 238.217 57.9034C236.636 52.7667 235.192 47.7554 233.962 42.5014L233.453 40.3214L231.847 42.3113C230.371 44.1355 228.457 45.5754 226.561 46.9344C224.651 48.2853 222.702 49.5957 220.631 50.6959C218.556 51.796 216.388 52.7182 214.123 53.3653C212.586 53.8062 211.009 54.1055 209.367 54.243C209.084 51.8041 208.647 49.3854 208.044 47.0193C207.393 44.3903 206.58 41.8098 205.714 39.2698C204.857 36.7216 203.85 34.2342 202.693 31.8155C201.553 29.3928 200.303 27.0266 199.134 24.6403C197.965 22.258 196.857 19.8555 195.874 17.4004L195.32 16.0131L194.535 17.3397C192.921 20.0658 190.636 22.3389 188.262 24.4057C185.867 26.4725 183.453 28.4584 181.091 30.5374C178.704 32.584 176.245 34.5699 173.738 36.5235C171.828 38.0078 169.915 39.4801 167.925 40.8998C167.78 40.6652 167.646 40.4265 167.497 40.1919C166.659 38.9138 165.766 37.6802 164.835 36.4871C162.979 34.0886 160.94 31.8883 158.865 29.773C154.703 25.5503 150.234 21.8171 146.25 17.7482C144.264 15.7138 142.4 13.6025 140.737 11.3658C139.091 9.13315 137.619 6.77108 136.656 4.16633L135.123 0.00439453L134.145 4.13397C133.497 6.84793 132.337 9.50526 130.775 11.928C129.226 14.3629 127.35 16.6076 125.299 18.6785C121.19 22.8445 116.279 26.1409 111.798 30.0642C109.557 32.0258 107.426 34.1493 105.488 36.4911C104.303 37.9027 103.195 39.4032 102.18 40.9766C100.153 39.5286 98.2039 38.0321 96.2625 36.5235C93.7588 34.5699 91.2997 32.584 88.9093 30.5374C86.5432 28.4584 84.1326 26.4725 81.7381 24.4057C79.368 22.3389 77.0787 20.0658 75.4649 17.3397L74.6802 16.0131L74.1261 17.4004C73.1433 19.8555 72.0351 22.258 70.8662 24.6403C69.6973 27.0266 68.4475 29.3928 67.3069 31.8155C66.1501 34.2342 65.143 36.7216 64.2855 39.2698C63.4159 41.8098 62.607 44.3903 61.9518 47.0193C61.3532 49.3854 60.9163 51.8041 60.6332 54.243C58.9951 54.1055 57.4137 53.8062 55.8808 53.3653C53.6117 52.7182 51.4438 51.796 49.3689 50.6959C47.294 49.5957 45.3485 48.2853 43.4394 46.9344C41.5425 45.5754 39.6294 44.1355 38.1531 42.3113L36.5474 40.3214L36.0377 42.5014C34.8122 47.7554 33.3642 52.7667 31.7828 57.9034C31.0224 60.4718 30.3186 63.0846 29.8859 65.7541C29.4693 68.4235 29.2508 71.1334 29.178 73.8636C29.1133 76.5978 29.263 79.3602 29.7483 82.0904C30.2418 84.8165 31.0426 87.5142 32.1832 90.0705C33.0811 92.0726 34.1974 93.9857 35.5241 95.7289C33.2389 94.7784 30.9536 93.8846 28.8706 92.5943C25.9059 90.8106 23.5439 88.0926 22.1201 84.9621L21.3355 83.2431L20.5023 85.0875C18.6822 89.1119 17.5295 93.5772 17.5254 98.0829C17.5578 102.572 18.2292 107.106 19.8673 111.365C21.5175 115.596 24.1182 119.576 27.6856 122.553C29.4167 124.017 31.3985 125.21 33.5139 125.987C28.4338 127.18 23.4913 128.697 18.4678 129.7C15.6042 130.254 12.6921 130.614 9.80825 130.432C6.93251 130.258 4.077 129.494 1.71897 127.908L0 126.759L0.610741 128.753C3.07797 136.818 7.45023 144.439 13.5576 150.522C16.6113 153.555 20.0614 156.168 23.7178 158.433C27.3782 160.702 31.2732 162.591 35.3138 164.079C43.4111 167.052 52.1395 168.177 60.6777 167.635C67.9136 167.161 75.0443 165.402 81.5157 162.389C79.8372 163.93 78.1141 165.414 76.3305 166.822C73.5599 168.957 70.6194 170.874 67.501 172.322C64.3907 173.79 61.1347 174.794 57.8586 175.344L54.1861 175.966L56.9688 178.701C58.9304 180.63 61.0255 182.45 63.2825 184.088C65.5394 185.738 67.954 187.223 70.5588 188.42C73.1554 189.621 75.9503 190.531 78.8745 190.92C81.7907 191.316 84.8161 191.199 87.6999 190.507C90.5959 189.84 93.3018 188.578 95.7205 186.992C98.1351 185.391 100.246 183.425 102.05 181.257C103.842 179.085 105.339 176.703 106.495 174.183C106.908 173.257 107.292 172.314 107.616 171.352C108.801 174.312 110.617 176.909 112.647 179.154C114.937 181.694 117.485 183.866 120.025 185.989C122.569 188.113 125.157 190.155 127.645 192.283C128.887 193.346 130.1 194.434 131.196 195.595C132.292 196.736 133.311 197.998 133.845 199.243L134.812 201.508L136.171 199.219C136.854 198.058 137.991 196.991 139.18 195.992C140.381 194.997 141.68 194.042 142.986 193.079C145.607 191.166 148.289 189.209 150.885 187.065C153.49 184.925 156.018 182.592 158.243 179.866C160.071 177.641 161.648 175.081 162.712 172.262C162.955 172.909 163.221 173.552 163.505 174.183C164.661 176.703 166.158 179.085 167.954 181.257C169.754 183.425 171.861 185.391 174.28 186.992C176.694 188.578 179.404 189.84 182.3 190.507C185.18 191.199 188.213 191.316 191.125 190.92C194.05 190.531 196.849 189.621 199.441 188.42C202.046 187.223 204.461 185.738 206.718 184.088C208.974 182.45 211.07 180.63 213.031 178.701L215.81 175.971L212.141 175.344C208.813 174.777 205.508 173.754 202.349 172.258C199.174 170.785 196.181 168.848 193.346 166.696C191.874 165.556 190.438 164.366 189.03 163.133C195.611 166.288 202.928 168.096 210.346 168.504C218.847 168.961 227.523 167.683 235.507 164.548C239.495 162.979 243.326 161.005 246.905 158.664C250.485 156.326 253.85 153.64 256.81 150.562C262.748 144.39 266.95 136.766 269.389 128.753L270 126.755L268.281 127.908Z" fill="#FEDFB2"/>
</g>
</svg>
